<?xml version="1.0" encoding="utf-8"?>
<!-- Generator: Adobe Illustrator 17.1.0, SVG Export Plug-In . SVG Version: 6.00 Build 0)  -->
<!DOCTYPE svg PUBLIC "-//W3C//DTD SVG 1.1//EN" "http://www.w3.org/Graphics/SVG/1.1/DTD/svg11.dtd">
<svg version="1.1" id="Layer_1" xmlns="http://www.w3.org/2000/svg" xmlns:xlink="http://www.w3.org/1999/xlink" x="0px" y="0px"
	 viewBox="256 346 100 100" enable-background="new 256 346 100 100" xml:space="preserve">
<g>
	<path fill="#FF8900" d="M288.8,369.1c1.8,0,3.3-1.5,3.3-3.3v-13c0-1.8-1.5-3.3-3.3-3.3c-1.8,0-3.3,1.5-3.3,3.3v13
		C285.5,367.6,287,369.1,288.8,369.1z"/>
	<path fill="#FF8900" d="M348.3,369.1c0-5.4-4.4-9.8-9.8-9.8h-9v6.4c0,2.8-2.3,5.1-5.1,5.1s-5-2.3-5-5.1v-6.4h-25.7v6.4
		c0,2.8-2.3,5.1-5.1,5.1c-2.8,0-5-2.3-5-5.1v-6.4h-9c-5.4,0-9.8,4.4-9.8,9.8v7.4h83.2V369.1L348.3,369.1z"/>
	<path fill="#FF8900" d="M324.4,369.1c1.8,0,3.3-1.5,3.3-3.3v-13c0-1.8-1.5-3.3-3.3-3.3s-3.3,1.5-3.3,3.3v13
		C321.2,367.6,322.7,369.1,324.4,369.1z"/>
	<path fill="#FF8900" d="M265,379.3v37.9v2.2v9.9c0,5.4,4.4,9.8,9.8,9.8h63.7c5.4,0,9.8-4.4,9.8-9.8v-49.9H265z M308,402.6
		c2.3,4.4,2.5,10.1,0.3,14.5H308V402.6z M267.5,400.8h17c-1.4,1.7-2.4,3.6-3.1,5.6c-1.2,3.8-0.6,7.6,1.1,10.8h-15V400.8z
		 M285.6,436.4h-10.8c-4,0.1-7.3-3.2-7.3-7.3v-9.9H284c0.5,0.6,1,1.2,1.6,1.7V436.4z M285.6,417.1h-0.4c-2.7-4.8-2.7-11,0.4-15.4
		V417.1z M285.6,398.5h-18.1v-16.8h18.1L285.6,398.5L285.6,398.5z M305.8,420.5c-1.9,1.9-4.6,3.3-8,3.7c-1,0.1-1.7,1.4-0.3,1.2
		c3.1-0.4,5.9-1.5,8.2-3.1v14.2h-17.9v-13.7c1.7,1.1,3.6,2,5.7,2.4c0.7,0.2,2.4-0.9,1.2-1.1c-2.8-0.6-5.1-1.9-6.9-3.6v-1.2h18
		C305.8,419.3,305.8,420.5,305.8,420.5z M305.8,417.1h-18v-16.3h18V417.1z M288.7,398.6c1.7-1.2,3.9-2.1,6.5-2.5
		c4-0.5,7.2,0.5,9.6,2.5H288.7z M305.8,397.8c-2.2-1.5-4.8-2.5-7.5-2.9c-3.9-0.5-7.5,0.6-10.6,2.7v-15.9h18
		C305.8,381.7,305.8,397.8,305.8,397.8z M326,436.5H308v-16.1c0.3-0.3,0.6-0.7,0.9-1.1h17V436.5L326,436.5z M326,417.1h-15.6
		c0.9-1.7,1.6-3.6,1.9-5.7c0.6-4.1-0.8-7.8-3.2-10.7H326L326,417.1L326,417.1z M326.1,398.5h-18v-16.8h18V398.5z M345.9,429.2
		c0,4.1-3.3,7.4-7.4,7.4h-10.3v-17.2h17.6V429.2z M345.9,417.1h-17.6v-16.3h17.6V417.1z M345.9,398.6h-17.6v-16.9h17.6V398.6z"/>
</g>
</svg>
