<?xml version="1.0" encoding="utf-8"?>
<!-- Generator: Adobe Illustrator 17.1.0, SVG Export Plug-In . SVG Version: 6.00 Build 0)  -->
<!DOCTYPE svg PUBLIC "-//W3C//DTD SVG 1.1//EN" "http://www.w3.org/Graphics/SVG/1.1/DTD/svg11.dtd">
<svg version="1.1" id="Layer_1" xmlns="http://www.w3.org/2000/svg" xmlns:xlink="http://www.w3.org/1999/xlink" x="0px" y="0px"
	 viewBox="256 346 100 100" enable-background="new 256 346 100 100" xml:space="preserve">
<g>
	<path fill="#FF8900" d="M350.5,438.6l-12.3-31.9c-0.2-0.5-0.6-0.8-1-1l-18.3-7.4c-0.5-0.2-0.9-0.2-1.3,0l-0.6,0.3
		c5.4-8.5,11.7-20,11.7-28.1c-0.1-11.8-9.6-21.2-21.2-21.2c-11.6,0-21.1,9.4-21.1,21c0,10,9.4,25,15.3,33.3l-17.9-6
		c-0.6-0.2-1.4-0.1-1.9,0.5l-22.5,23.1c-0.4,0.4-0.6,1-0.5,1.6c0.1,0.6,0.4,1,0.9,1.4l29.2,16.8c0,0,0,0,0.1,0
		c0.1,0,0.2,0.1,0.3,0.1h0.1h0.1c0.1,0,0.2,0.1,0.4,0.1c0,0,0,0,0.1,0h0.1c0.1,0,0.3,0,0.4-0.1c0.1,0,0.1,0,0.2-0.1
		c0.1,0,0.1,0,0.2-0.1l25.6-12.6c0.2,0.1,0.4,0.1,0.6,0.1h0.1c0.2,0,0.3,0,0.5-0.1l30.7,12.6c0.2,0.1,0.5,0.1,0.7,0.1
		c0.5,0,0.9-0.2,1.3-0.6C350.6,440.1,350.8,439.2,350.5,438.6z M289.2,436.6L263.7,422l11.4-11.7c0.3,0.6,0.6,1.4,1.1,2.3
		c0.2,0.3,0.5,0.5,0.8,0.5c0.2,0,0.3,0,0.5-0.1c0.5-0.3,0.6-0.8,0.4-1.3c-0.7-1.3-1.2-2.3-1.4-2.9l7.3-7.5l15.8,5.3l-6.1,17.2
		c0-0.4-0.4-0.7-0.7-0.8c-1.2-0.2-2.3-0.5-3.4-0.8c-0.5-0.2-1,0.1-1.2,0.6c-0.2,0.5,0,0.9,0.6,1.1c1.2,0.5,2.5,0.7,3.8,1
		c0.1,0,0.1,0,0.2,0c0.3,0,0.5-0.1,0.6-0.3L289.2,436.6z M315.6,412.4c-0.4,0.3-0.5,0.8-0.2,1.2c0,0.1,0.1,0.1,0.1,0.2l-0.5,11
		l-21.9,10.8l10.1-28.6l0.6-0.3c1.3,1.7,2.1,2.8,2.3,2.9c0.3,0.4,0.8,0.6,1.3,0.6c0.6,0,1-0.3,1.3-0.6c0.3-0.3,2.1-2.8,4.6-6.4
		l2.6-0.9L315.6,412.4z M303,388.9c0-2.5,2-4.6,4.5-4.6s4.6,2.1,4.6,4.6c0,2.5-2.1,4.5-4.6,4.5C305.1,393.5,303,391.4,303,388.9z
		 M311.1,378.9c0,0.6-0.5,0.9-0.9,0.9H305c-0.5,0-0.9-0.4-0.9-0.9v-2c0-4,6.6-5.8,6.6-8.9c0-1.5-1.6-2.9-3.6-2.9
		c-3.4,0-4.3,3-5.5,1.9l-2.9-2.6c-0.4-0.4-0.4-0.9,0-1.3c0,0,3.6-4.2,9.8-4.2c5.1,0,9.9,3.6,9.9,8.4
		C318.3,373.5,311.1,373.7,311.1,378.9z M318.9,425l0.5-12.2c0.2,0,0.3-0.1,0.5-0.1c0.5-0.1,0.8-0.6,0.7-1.1
		c-0.1-0.5-0.6-0.8-1.1-0.7l0.3-8.3l15.4,6.3l10.5,27.1L318.9,425z"/>
	<path fill="#FF8900" d="M284,419.2c-0.8-0.7-1.8-1.5-2.6-2.4c-0.4-0.4-0.9-0.4-1.3-0.1c-0.4,0.4-0.4,0.9-0.1,1.3
		c0.8,1,1.8,1.8,2.8,2.7c0.2,0.2,0.4,0.2,0.6,0.2c0.3,0,0.6-0.1,0.7-0.4C284.5,420.1,284.4,419.5,284,419.2z"/>
	<path fill="#FF8900" d="M301.8,421c-1.1,0.5-2.2,0.9-3.3,1.3c-0.5,0.2-0.7,0.6-0.6,1.2c0.1,0.4,0.5,0.6,0.9,0.6c0.1,0,0.2,0,0.3,0
		c1.2-0.4,2.4-0.8,3.5-1.4c0.5-0.2,0.6-0.7,0.5-1.2C302.9,421,302.3,420.8,301.8,421z"/>
	<path fill="#FF8900" d="M329.8,412.1c-1.2-0.6-2.5-0.9-3.7-1.2c-0.5-0.1-1,0.2-1.1,0.7c-0.1,0.5,0.2,1,0.7,1.1
		c1.1,0.3,2.2,0.6,3.3,1.1c0.1,0.1,0.3,0.1,0.4,0.1c0.4,0,0.7-0.2,0.8-0.6C330.6,412.8,330.3,412.3,329.8,412.1z"/>
	<path fill="#FF8900" d="M310.5,416c-1.1,0.7-2.1,1.4-3,2c-0.5,0.3-0.6,0.8-0.3,1.3c0.2,0.3,0.5,0.5,0.8,0.5c0.2,0,0.4,0,0.5-0.2
		c1-0.6,2-1.3,3.1-2c0.5-0.3,0.6-0.8,0.2-1.3C311.4,415.9,310.9,415.8,310.5,416z"/>
	<path fill="#FF8900" d="M334.3,415.7c-0.3,0.4-0.3,1,0.2,1.3c0.9,0.7,1.8,1.5,2.7,2.4c0.2,0.2,0.4,0.3,0.6,0.3
		c0.3,0,0.5-0.1,0.6-0.3c0.4-0.4,0.4-0.9,0-1.3c-0.9-0.9-1.9-1.7-2.9-2.5C335.2,415.2,334.6,415.3,334.3,415.7z"/>
</g>
</svg>
