<?xml version="1.0" encoding="utf-8"?>
<!-- Generator: Adobe Illustrator 17.1.0, SVG Export Plug-In . SVG Version: 6.00 Build 0)  -->
<!DOCTYPE svg PUBLIC "-//W3C//DTD SVG 1.1//EN" "http://www.w3.org/Graphics/SVG/1.1/DTD/svg11.dtd">
<svg version="1.1" id="logo_xA0_Image_1_" xmlns="http://www.w3.org/2000/svg" xmlns:xlink="http://www.w3.org/1999/xlink" x="0px"
	 y="0px" viewBox="0 388 612 404" enable-background="new 0 388 612 404" xml:space="preserve">
<path fill="#FFFFFF" d="M603.1,465.4c-3.5-17.9-12.5-32.6-26.9-43.7c-7-5.4-15-9.8-24.6-13.4c-11.2-4.3-23.2-7.4-38-9.7
	c-7-1.1-12.5-1.7-17.5-1.9c-0.8-0.4-1.6-0.5-2.5-0.5H468c-0.9,0-1.7,0.2-2.5,0.5c-5.2,0.2-9.9,0.9-14.2,1.4l-0.5,0.1
	c-9.1,1.2-19.7,3-30,6.8c-10.3,3.6-19,8.3-26.7,14.4c-3.5-2.4-7.3-4.6-11.1-6.6c-6.6-3.3-13.7-6-21.5-8.3c-9.7-2.7-18.7-4.7-27.6-6
	c-6.4-0.9-13.9-1.8-21.7-1.9h-0.5c-0.6,0-1.4,0-1.7-0.1c-0.8-0.2-1.4-0.2-1.8-0.2H296c-0.4,0-1,0-1.8,0.3c-0.5,0.1-1.2,0.1-2.1,0.1
	h-1.3c-3.4,0-6.6,0.3-9.8,0.6l-1.7,0.2c-4.5,0.5-8.9,1.1-13,1.8c-6.2,0.9-11.9,2.2-18.1,3.9c-10.9,3-20.4,7.5-29.2,13.9
	c-1.2,0.9-2.4,1.8-3.7,2.7c-6.8-4.8-14.8-9-24.5-12.5c-8.1-2.8-16.3-5.1-25.3-6.9c-6.3-1.2-11.5-2.1-16.4-2.6l-1.8-0.2
	c-2.7-0.3-6-0.8-9.4-0.9c-0.8-0.3-1.7-0.5-2.6-0.5h-18.4l-0.6,0c-2.3,0.2-4.6,0.3-6.9,0.4l-1.1,0.1c-3.4,0.2-6.9,0.4-10.3,0.8
	c-3.7,0.4-11.2,1.4-19.9,3c-12.8,2.6-24,6.8-34.4,13.1c-10.3,6.4-18.7,14.4-24.8,23.7c-5.9,8.9-9.7,19-11.2,30l-0.3,2.8
	c-0.1,0.3-0.1,0.6-0.1,1c0,0.1,0,0.2,0,0.4c-0.6,1-1,2.2-1,3.4v9.9c0,1.1,0.3,2.2,0.9,3.2c0.3,4.1,1.1,8.4,2.4,13.3
	c3.8,15.1,11.2,29.2,22,42c7,8.1,15.3,15.3,25.4,21.9c10.5,6.9,22.4,12.9,36.3,18.2c-3.5,0.6-7.2,1.1-11.1,1.6
	c-7,0.9-13.9,1.6-20.5,2.1c-9.9,0.7-18.3,1-25.6,1c-1,0-1.9,0-2.7,0.1c-2.8,0.4-5.1,2.4-5.9,5.2c-0.8,3,0.4,6.3,3,7.9l0.1,0.1
	c0.6,0.4,1.6,0.9,2.8,1.5l0.1,0.1c14.1,6.4,27.4,14.5,39.7,24c16.1,12.6,29.5,27.3,40.1,43.6c-6.3,10.7-11.5,22.3-15.4,34.6
	c-4,12.6-6.6,25.8-7.7,39.2c-0.6,9.6-0.6,18.8,0.2,28.2c0,0.7,0.1,1.3,0.2,1.8c0,0.2,0,0.3,0.1,0.5l0,0.2c0.3,2.6,1.9,4.8,4.2,6.2
	c1,0.6,2,1,3,1.2c1.9,0.6,3.6,0.8,5.1,1c0.3,0.1,0.5,0.1,0.8,0.1c0.1,0,0.1,0,0.2,0l0.4,0.1c1,0.1,1.9,0.1,2.9,0.1
	c1.1,0,3.7-0.3,5.7-2.6c2.1-2.3,1.9-5.2,1.7-6.2c0-0.3-0.1-0.6-0.1-0.9c0-0.4-0.1-0.9-0.1-1.3c0-0.5-0.1-1-0.1-1.6
	c-0.1-0.9-0.2-1.7-0.2-2.4l0-0.1c-0.3-9.1-0.3-15.8,0.2-21.7c0.7-9.3,2.3-18.6,4.7-27.7c2-7.5,4.6-15,7.7-22.4
	c2.3,5.6,4.2,10.9,5.6,15.9c2.4,8.2,4.1,16.5,5.2,24.6c0.4,3.2,0.8,7,1,11.3c0.3,5.7,0.3,11,0,16.2c-0.2,3.5-0.4,6.2-0.6,8.1
	c-0.3,3.7,1.4,6.8,4.6,8.6l0.1,0.1c1.3,0.7,2.9,1.2,4.8,1.6c1.1,0.6,2.2,1,3.5,1h4.2c2.7,0,5.1-1.6,6-4c0.6-1.4,0.9-2.7,1-4.1
	l0.3-3.9c0.2-2.3,0.4-5,0.5-7.7c0.4-12.6-0.5-25.3-2.9-37.7c-3.2-16.8-8.8-32.9-16.7-48c-1.2-2.3-2.4-4.5-3.5-6.4
	c0.2-0.3,0.4-0.7,0.7-1c0.2-0.3,0.4-0.6,0.5-0.8c13.8-20.5,31.7-37.9,53.2-51.9c7.6-4.9,15.5-9.3,24.1-13.4
	c18.9,9.3,36,21.3,50.9,35.9c7.4,7.4,13.6,14.8,18.7,22c1.1,1.5,2.2,3.1,3.2,4.8c0.6,0.9,1.1,1.7,1.7,2.5c-0.4,0.6-0.7,1.3-1.1,1.9
	l-0.6,1.1c-12.7,23-19.9,47.6-21.4,73c-0.5,8.7-0.4,17.6,0.4,26.4c0,0.3,0.1,0.6,0.1,0.8l0,0.2c0.2,3.7,2.4,6.7,6,8.1l0.2,0.1
	c3.6,1.2,6.9,1.7,10.3,1.6c2.3,0,4.3-0.9,5.7-2.4l0.1-0.1c1.9-2.2,1.8-4.8,1.8-5.7l0-0.6c0-0.3-0.1-0.5-0.1-0.8
	c0-0.4-0.1-0.8-0.1-1.2c0-0.5-0.1-0.9-0.1-1.4c-0.1-0.8-0.2-1.6-0.2-2.3l0-0.1c-0.2-7.4-0.4-14.6,0.2-21.7
	c0.5-6.2,1.4-12.9,2.7-19.8c2.2-10.5,5.4-20.8,9.7-30.6c3.4,8.2,6.1,16.8,8.1,25.4c1.5,6.7,2.6,13.3,3.1,19.7c0.2,1.5,0.3,3.1,0.4,5
	l0,0.2c0,0.4,0.1,0.8,0.1,1.2c0,0.5,0.1,1,0.1,1.5c0.3,4.6,0.3,9.3,0,14.1c0,0.5-0.1,1-0.1,1.5c0,0.4,0,0.8-0.1,1.2l0,0.2
	c-0.1,2.1-0.2,3.9-0.4,5.6c-0.8,6.4,3.7,8.6,5.2,9.3c1.7,0.8,3.2,1.1,4.2,1.3c1.1,0.6,2.2,1,3.5,1h4.2c2.5,0,4.7-1.4,5.7-3.5
	l0.2-0.2l0.3-1c0.2-0.7,0.6-1.7,0.7-3c0.5-5.4,0.8-9.8,0.8-13.9c0.1-4.4,0-8.9-0.3-13c-0.5-9.1-1.7-18-3.5-26.2
	c-3.6-17.3-10.1-34.4-19.5-50.9c11-16.9,24.8-31.8,41.1-44.3c11-8.6,23.3-16.1,36.5-22.4c0.1,0,0.1-0.1,0.2-0.1
	c0.5,0.3,1,0.5,1.4,0.7l0.1,0.1c1.8,0.9,3.7,1.9,5.5,2.8c22.7,12.3,42,28.6,57.5,48.3c3.6,4.7,6.5,8.7,9.2,12.9
	c-1.1,1.9-2.1,3.8-3.1,5.7c-12.3,23.1-19.1,48-20.2,73.9c-0.3,6.2-0.1,12.8,0.5,20.9c0,0.8,0.1,1.6,0.2,2.2l0,0.1c0,0.1,0,0.3,0,0.4
	c0,0.3,0.1,0.6,0.1,0.8c0.2,2.8,1.8,5.2,4.5,6.7l0.2,0.1c0.9,0.4,1.8,0.9,2.9,1.1c2.5,0.7,4.9,1.1,7.3,1.2l0.1,0
	c0.7,0,1.5,0,2.7-0.1c3.9-0.5,6.7-3.8,6.5-7.7c0-0.3,0-0.7-0.1-1.2l0-0.2c-0.1-0.9-0.2-1.8-0.2-2.7l0-0.3c-0.2-2.1-0.4-4-0.4-6
	l0-0.1c-0.4-12.2,0.5-24,2.5-35.1c2-11.2,5.5-22.4,10.3-33.6c6.9,16.5,10.8,33.8,11.8,51.6c0.5,8.4,0.3,16.5-0.6,24.2
	c-0.5,4,1.2,7,4.8,8.9c1.3,0.6,2.7,1.1,4.3,1.5c1.2,0.8,2.4,1.2,3.6,1.2h4.8c3.4,0,6.2-2.6,6.5-6l0.3-3.1c0.2-2.3,0.4-4.8,0.5-7.3
	c0.6-14-0.3-27.7-2.8-40.6c-3.5-18.9-10.3-37.3-20.2-54.7c0,0,0-0.1-0.1-0.1c0,0,0-0.1,0.1-0.1c11.5-17.8,26.4-33.4,44.1-46.5
	c10.9-8.1,22.8-15.1,35.1-20.7l0.7-0.2c0.9-0.3,3.1-1.2,4.6-3.4c1.6-2.2,1.6-5.1,0-7.2c-1.5-2.3-3.7-3.1-4.7-3.4l-0.5-0.2
	c-0.5-0.1-0.9-0.3-1.4-0.4c-0.5-0.2-1-0.3-1.5-0.5l-0.2,0c-0.7-0.2-1.2-0.3-1.9-0.6l-0.3-0.1c-1.5-0.4-3-0.6-4.6-0.6
	c-10.1-0.1-20.1-0.5-29.8-1.2c-6.6-0.5-13-1.2-19.1-2c3-1.1,5.9-2.3,8.7-3.6c15.3-6.7,28.3-14.7,39.8-24.3
	c7.2-6.1,12.8-11.9,17.5-18.1c9.2-12.5,15.2-26.4,17.9-41.4C605.1,487.3,605.3,476.5,603.1,465.4z M508.1,626.1
	c-2.3,2.1-4.7,4.3-6.9,6.6l-0.2,0.2c-2.6,2.7-5.2,5.4-7.6,8.1c-2.2,2.5-4.9,5.6-7.3,8.9c-0.5,0.7-1.1,1.4-1.6,2.1
	c-12.8-16.5-28.4-30.9-46.6-42.9c-2.8-1.8-5.5-3.5-8-5c2.8-0.2,5.6-0.4,8.6-0.8l0.1,0c1.2-0.2,2.3-0.3,3.6-0.4l1.8-0.2
	c1.1-0.1,2.2-0.3,3.5-0.4l4.3-0.6c3.5-0.5,7-1,10.6-1.5c7-1.1,14.1-2.5,21.8-4.2c0.2,0,0.4-0.1,0.6-0.1c0.2,0,0.4-0.1,0.6-0.1
	c1-0.2,2-0.5,3-0.7c4.2,0.9,9,2,14.4,3.1c5.2,1.1,10.3,1.9,15.7,2.7c0.6,0.1,1.3,0.2,1.9,0.3c0.5,0.1,1.1,0.1,1.6,0.2l0.3,0
	c2.5,0.2,5.2,0.5,8,0.9l0.7,0.1c2,0.3,4,0.4,6,0.6c0.4,0,0.8,0.1,1.2,0.1c-0.4,0.3-0.9,0.6-1.3,0.9c-3.1,2-6.4,4.2-9.4,6.4
	c-3.6,2.6-6.6,4.9-9.1,6.9c-3.4,2.7-6.3,5.2-8.8,7.5L508.1,626.1z M221,485.4c-0.6,8.3-2.4,16.3-5.1,23.6
	c-2.4-6.8-3.8-13.9-4.4-21.2c-0.6-7.8,0-15.4,1.6-22.8c0.8-3.9,1.9-7.4,3.3-10.6c1.5,3.6,2.6,7.3,3.4,11.2
	C221.2,471.7,221.6,478.4,221,485.4z M400.7,490.3c-0.9,6.8-2.5,13-4.7,18.6l0,0.1c-0.3,0.7-0.5,1.5-0.8,2.2
	c-2.3-6.1-3.9-12.4-4.7-18.6c-0.7-5-0.9-9.2-0.7-13.3c0.5-9.8,2.2-18,5.1-25c0.3-0.6,0.5-1.3,0.9-2c2.9,6.4,4.6,13.5,5.3,21.2
	C401.7,479.1,401.5,484.6,400.7,490.3z M365.9,467.2c-2.1,13.8-0.6,28.1,4.3,42.5c2.8,8,6.7,15.8,11.6,23.3
	c-6.8,7.9-14.8,14.7-24.5,20.9c-8.7,5.7-18.7,10.7-30.5,15.4c-9,3.5-16.8,6.1-24.6,8.3c-13.2-3.9-24.7-8.5-35.1-14
	c-13.3-7.1-24.4-15.4-33.7-25.3c-1.2-1.2-2.3-2.5-3.4-3.9c7.3-11.2,12.1-23.6,14.5-37.1c1.5-8.8,1.8-17.2,0.8-25.2
	c-1.6-13.9-6.5-26.3-14.6-36.8c0,0,0,0,0,0c6.2-5.4,13.6-9.9,22.7-13.6c7-2.7,14.4-4.7,21.9-5.9l0.1,0c0.4-0.1,0.9-0.2,1.3-0.2
	c0.5-0.1,1.1-0.2,1.6-0.3c0.7-0.1,1.5-0.2,2.2-0.4c1.9-0.3,3.8-0.6,5.6-0.8c2-0.3,4-0.4,6-0.6c1.1-0.1,2.2-0.2,3.2-0.3l2.4-0.2
	c6-0.5,11.1-0.6,17.1-0.4c4.9,0.1,9.9,0.5,15.8,1.2c8.4,1.1,15.6,2.6,22,4.7c7.1,2.1,13.3,4.8,19.1,8c3,1.7,5.9,3.7,8.7,6
	C372.9,442.5,367.9,454.2,365.9,467.2z M192,449.8c-2.7,6.7-4.4,13.9-5.2,22c-0.7,7-0.4,14.2,0.8,21.9c1.4,8.5,4,16.8,7.7,24.6
	c2.3,4.9,4.7,9.2,7.3,13.2c-5.5,6.6-11.6,12.3-18.7,17.4c-8.4,6.2-18,11.6-30.4,17.1c-9.8,4.3-20.1,7.9-31.4,11
	c-14.8-4.4-27.5-9.7-38.8-16c-11.1-6.3-20.9-13.8-29.3-22.5c-10.7-11.1-17.8-24.6-21.2-40.1c-1.4-6.8-2-14.3-1.6-21.5
	c0.5-7.9,1.9-14.8,4.4-21.2c3-8,8.1-15.1,15.2-21.2c6.5-5.6,14.3-10.2,23.8-13.9c6-2.3,12.7-4,20.3-5.4c4.4-0.7,9.7-1.6,15-2.1
	c7.8-0.7,14.4-1.1,20.3-1.1c3.4,0,6.8,0.1,10,0.3c5.8,0.4,10.4,0.9,14.7,1.6c12.8,2,24,5.5,34.4,10.8c4.4,2.2,8.5,5,12.1,8.2
	C197.5,438.4,194.3,444,192,449.8z M118.4,597.3c3.8-0.8,7.5-1.6,11.1-2.4c7.8,1.8,14.2,3.1,20,4.2c6,1.1,11.8,2,17.4,2.6l1.6,0.2
	c1.1,0.1,2.1,0.3,3.3,0.4c2.8,0.3,5.5,0.6,7.8,0.9c-8.5,5.3-16.6,11.1-24.1,17.4c-11.5,9.7-21.5,20.2-30,31.3
	c-12-15.4-26.4-29-42.9-40.3c-3.7-2.6-7.7-5.1-12-7.7c0.5-0.1,1-0.1,1.5-0.1c2.7-0.2,5.9-0.4,9.7-0.8c5.7-0.6,11.3-1.3,16.6-2.1
	C106,599.6,112.5,598.5,118.4,597.3z M195.1,568.1c8.4-5.6,15.9-11.6,22.4-18c7.5,7.5,16.1,13.9,26,19.7c8.8,5.2,18.7,9.9,30.2,14.2
	c0,0-0.1,0-0.1,0c-5.1,0.8-9.9,1.5-14.7,2.1c-7.2,0.9-14.1,1.5-21,1.9l-3.3,0.2c-5.2,0.3-11.6,0.6-17.9,0.6
	c-0.4-0.1-0.8-0.2-1.3-0.2c-1.1,0-2,0.1-2.8,0.3c-1.8-0.3-3.5-0.3-5-0.3h-0.9c-6.6-0.1-13.4-0.4-19.8-0.7c-5-0.3-9.9-0.7-15.2-1.2
	c-3.7-0.4-7.4-0.8-11.1-1.3C173.8,580.4,185.1,574.7,195.1,568.1z M252,603.8c1.6-0.1,3.2-0.2,4.8-0.4l11.1-1.2c1-0.1,2-0.2,2.9-0.4
	c0.9-0.1,1.8-0.2,2.8-0.3l2.3-0.3c7.7-1,13.8-2.1,19.2-3.2c3.5-0.7,6.7-1.4,10.2-2.2c1.5-0.3,3-0.7,4.6-1c0,0,0,0,0,0
	c7.3,1.7,12.4,2.8,17,3.6l2,0.4c4.7,0.8,9.5,1.7,14.4,2.3l4.2,0.5c2.8,0.4,6,0.8,9.2,1.1c1,0.1,1.9,0.2,2.9,0.3
	c-8.3,5.2-16.2,10.9-23.4,16.9c-11.4,9.6-21.6,20.2-30.4,31.7c-10.2-13.2-22.4-25.2-36.1-35.4c-5.7-4.3-11.8-8.4-18.3-12.3
	L252,603.8z M340.6,585.3C340.6,585.3,340.6,585.3,340.6,585.3c1.4-0.6,2.7-1.1,4.1-1.7c15.4-6.3,28.4-13.7,40-22.7
	c4.4-3.4,8.3-6.8,11.9-10.3c7.4,7.2,15.9,13.6,25.8,19.2c8.7,5.1,18.2,9.6,29.3,13.8l-3.3,0.5c-3.1,0.5-6.2,1-9.3,1.3
	c-4.9,0.6-10.2,1.2-15.7,1.6c-9.1,0.8-18.7,1.2-29.4,1.3l-1.4,0l-0.3,0.3c-0.2,0-0.4,0.1-0.7,0.1c-0.6-0.1-1.3-0.2-2.1-0.2
	c-1.1,0-2.1-0.1-3.2-0.1c-1,0-2.1,0-3.3-0.1l-0.5,0c-4-0.1-8.1-0.2-12.1-0.4c-6.1-0.3-11.1-0.7-15.8-1.1
	C349.4,586.4,344.9,585.9,340.6,585.3z M481.3,577.3c-0.3,0.1-0.4,0.1-0.4,0.1c-14.2-4.2-26.5-9.2-37.7-15.5
	c-11.8-6.6-22-14.4-30.4-23.1c-1.1-1.1-2.2-2.3-3.3-3.5c3.7-5.5,6.6-11,8.9-16.4c5.2-12.1,7.8-24.8,7.8-37.7c0-1.7-0.1-3.4-0.2-5
	c0-0.7-0.1-1.4-0.1-2.1l0-0.1c-0.7-7.8-2.3-14.9-4.9-21.3c-2.6-6.8-6.1-13.1-10.7-18.7c0.2-0.2,0.4-0.3,0.6-0.5l0.4-0.3
	c6-4.9,13.1-8.9,21.6-12c6.2-2.3,12.8-4.1,20.8-5.5c4.7-0.8,9.7-1.6,15-2.1l0.2,0c6.2-0.9,12.6-1.3,20-1.3c2.6,0,5.2,0.1,7.5,0.2
	c9,0.4,17,1.4,24.4,3c10.3,2.2,19.1,5.3,27,9.4c16.2,8.4,26.4,21.9,30.5,40.1c1.5,7.1,1.9,14.7,1.1,22.4
	c-1.8,18.1-8.7,33.8-20.3,46.8c-6.9,7.6-14.8,14.1-24.1,19.9c-10,6.4-21.3,11.8-35.7,17.2C494,573.4,488.1,575.2,481.3,577.3z"/>
</svg>
