<?xml version="1.0" encoding="utf-8"?>
<!-- Generator: Adobe Illustrator 17.1.0, SVG Export Plug-In . SVG Version: 6.00 Build 0)  -->
<!DOCTYPE svg PUBLIC "-//W3C//DTD SVG 1.1//EN" "http://www.w3.org/Graphics/SVG/1.1/DTD/svg11.dtd">
<svg version="1.1" id="logo_xA0_Image_1_" xmlns="http://www.w3.org/2000/svg" xmlns:xlink="http://www.w3.org/1999/xlink" x="0px"
	 y="0px" viewBox="0 365 612 427" enable-background="new 0 365 612 427" xml:space="preserve">
<path opacity="5.000000e-02" fill="#FFFFFF" stroke="#000000" stroke-width="5" stroke-miterlimit="10" d="M599.7,444
	c-3.3-17.1-12-31.1-25.6-41.6c-6.7-5.2-14.4-9.4-23.7-12.9c-10.6-4.1-22.5-7.2-37.3-9.5c-6.4-1-12.2-1.7-17.9-1.9
	c-0.5-0.3-1-0.5-1.6-0.5H468c-0.6,0-1.1,0.2-1.6,0.5c-5.5,0.2-10.6,0.9-15.1,1.5c-8.8,1.2-19.2,2.9-29.3,6.6
	c-10.8,3.8-19.9,8.9-27.7,15.5c-3.9-2.8-8.3-5.5-12.8-7.8c-6.3-3.1-13.2-5.8-20.9-8.1c-8.5-2.4-17.6-4.5-27.1-5.9
	c-5.8-0.8-13.4-1.8-21.2-1.9h-0.5c-1,0-2,0-2.7-0.2c-0.3-0.1-0.5-0.1-0.8-0.1H296c-0.3,0-0.5,0-0.8,0.1c-1,0.3-2,0.3-3.1,0.3h-1.3
	c-3.8,0-7.6,0.4-11.1,0.7c-4.5,0.5-8.8,1.1-12.9,1.8c-6.6,1-12.3,2.3-17.7,3.8c-10.8,3-20,7.5-28.1,13.3c-1.9,1.4-3.8,2.8-5.7,4.3
	c-7.2-5.5-15.7-9.9-25.7-13.6c-7.4-2.6-15.5-4.9-24.8-6.8c-6.2-1.2-11.3-2.1-16.1-2.6l-1.9-0.2c-3.2-0.4-6.5-0.8-9.8-0.9
	c-0.5-0.3-1.1-0.5-1.7-0.5h-18.4c-0.1,0-0.2,0-0.3,0c-2.4,0.2-4.9,0.3-7.3,0.4c-3.5,0.2-7.3,0.4-10.9,0.8c-5.4,0.6-12.4,1.6-19.6,3
	c-12.5,2.5-23.4,6.7-33.2,12.6c-9.8,6.1-17.8,13.7-23.7,22.7c-5.6,8.5-9.2,18.1-10.7,28.6c-0.1,0.9-0.2,1.9-0.3,2.8
	c-0.1,0.5-0.1,1.1-0.2,1.6c0,0.2,0,0.3-0.1,0.5v0.1c-0.5,0.6-0.8,1.3-0.8,2v9.9c0,0.8,0.3,1.5,0.8,2.1c0,0.1,0,0.2,0,0.3
	c0.3,4.2,1.1,8.6,2.3,13.3c3.7,14.7,10.9,28.3,21.3,40.6c6.7,7.8,14.8,14.8,24.7,21.3c10.6,7,22.7,13,36.9,18.3
	c3.7,1.4,7.4,2.6,11.1,3.8c-8,1.7-16.1,3-24.3,4.1c-7.2,0.9-14.2,1.6-20.7,2.1c-8.9,0.6-17.6,1-25.8,1c-0.9,0-1.6,0-2.2,0.1
	c-1.4,0.2-2.6,1.2-3,2.6c-0.4,1.5,0.2,3.2,1.5,4c0.7,0.4,1.6,0.9,2.6,1.4c14.5,6.6,28,14.8,40.4,24.4c16.8,13.2,30.9,28.6,41.9,46
	l0.2,0.3c0,0.1-0.1,0.2-0.2,0.3c-6.8,11.3-12.1,23.3-16,35.4c-4,12.5-6.5,25.5-7.5,38.4c-0.6,9-0.6,18.1,0.2,27.8
	c0,0.5,0.1,1,0.2,1.5c0,0.2,0.1,0.5,0.1,0.7c0.2,1.5,1.1,2.8,2.5,3.6c0.7,0.4,1.4,0.7,2.2,0.9c1.6,0.5,3.1,0.7,4.7,0.9
	c0.4,0.1,0.8,0.1,1.2,0.2c0.8,0.1,1.6,0.1,2.5,0.1c0.5,0,2-0.1,3.1-1.4c1.1-1.2,1-2.8,0.9-3.4c-0.1-0.8-0.1-1.6-0.2-2.4
	c-0.1-1.5-0.3-2.9-0.3-4.3c-0.3-8.6-0.3-15.6,0.2-22.1c0.7-9.5,2.3-19,4.8-28.3c2.7-10.3,6.5-20.4,11.2-30
	c3.5,7.6,6.6,15.4,8.9,23.5c2.4,8.3,4.2,16.8,5.3,25.2c0.4,3.5,0.8,7.3,1,11.5c0.3,5.8,0.3,11.3,0,16.6c-0.2,3.2-0.4,5.8-0.6,8.2
	c-0.2,2.3,0.8,4.1,2.8,5.2c1.2,0.6,2.6,1,4,1.3c0.2,0,0.4,0.1,0.5,0.1c0,0,0,0,0.1,0c0.6,0.5,1.3,0.8,2.1,0.8h4.2
	c1.2,0,2.3-0.7,2.7-1.8c0.4-1,0.7-2,0.8-3.1c0.1-1.3,0.2-2.6,0.3-3.9c0.2-2.4,0.4-5,0.5-7.5c0.4-12.2-0.5-24.6-2.8-36.9
	c-3.1-16.4-8.6-32.2-16.4-47c-1.5-2.9-3.1-5.8-4.5-8.1c0.4-0.6,0.8-1.2,1.2-1.8s0.8-1.3,1.2-1.9c14-20.8,32.2-38.6,54.2-52.9
	c8-5.2,16.5-9.9,26-14.3c0.2,0.1,0.4,0.1,0.5,0.2c19.7,9.5,37.5,22,52.9,37.1c7.1,7.1,13.6,14.6,19.1,22.5c1.1,1.6,2.2,3.2,3.3,4.9
	c0.9,1.4,1.9,2.9,2.9,4.3c-1,1.5-1.8,3-2.7,4.6l-0.1,0.2c-12.4,22.5-19.5,46.5-21,71.6c-0.5,8.4-0.4,17.1,0.4,26
	c0,0.3,0.1,0.5,0.1,0.7c0,0.1,0,0.2,0,0.3c0.1,2.3,1.5,4.1,3.8,5c3.1,1,6.1,1.5,9.2,1.4c0.6,0,2.1-0.1,3.2-1.3c1.1-1.3,1-2.9,1-3.6
	c-0.1-0.7-0.1-1.4-0.2-2.1c-0.1-1.4-0.3-2.7-0.3-4.1c-0.2-6.7-0.4-14.5,0.2-22.1c0.5-6.8,1.5-13.6,2.8-20.2
	c2.7-13.2,7.1-26.1,13.2-38.4c5.1,10.8,8.9,22,11.4,33.1c1.5,6.7,2.6,13.5,3.2,20.1c0.2,1.7,0.3,3.4,0.4,5.2
	c0.1,0.9,0.1,1.9,0.2,2.8c0.3,4.8,0.3,9.7,0,14.7c-0.1,0.9-0.1,1.9-0.2,2.8c-0.1,2-0.2,3.9-0.4,5.9c-0.4,3.2,0.9,4.6,3.2,5.7
	c1.3,0.6,2.5,0.9,3.5,1.1c0.2,0,0.3,0.1,0.5,0.1h0.1c0.6,0.5,1.3,0.8,2.1,0.8h4.2c1.3,0,2.4-0.8,2.8-2l0.1-0.1
	c0.2-0.6,0.5-1.4,0.6-2.4c0.5-5.5,0.8-9.7,0.8-13.7c0.1-4.2,0-8.6-0.3-12.7c-0.5-8.6-1.6-17.3-3.4-25.7
	c-3.6-17.4-10.2-34.3-19.4-50.3c-0.3-0.5-0.6-1-0.8-1.3c0-0.1,0.1-0.1,0.1-0.2c0.2-0.3,0.5-0.7,0.7-1.1
	c11.1-17.2,25.3-32.7,42.3-45.7c11.3-8.8,23.9-16.5,37.2-22.8c0.5-0.2,1-0.5,1.5-0.8c0.1,0,0.2,0.1,0.3,0.1c1,0.5,2,1,2.9,1.5
	c1.8,0.9,3.7,1.9,5.6,2.9c23.2,12.6,42.9,29.2,58.6,49.2c3.5,4.5,7,9.3,10.5,15c-1.5,2.4-2.8,4.9-4.1,7.4
	c-12,22.6-18.7,46.9-19.8,72.4c-0.3,6.3-0.1,13,0.5,20.6c0,0.6,0.1,1.2,0.2,1.8c0.1,0.5,0.1,1,0.2,1.5c0.1,1.8,1.1,3.2,2.7,4.1
	c0.8,0.4,1.4,0.7,2.1,0.8c2.1,0.6,4.3,1,6.7,1.1c0.7,0,1.3,0,2.2-0.1c2.2-0.3,3.6-2,3.5-4.2c0-0.3,0-0.6-0.1-0.8v-0.3
	c-0.1-1-0.2-2-0.2-3c-0.2-2.1-0.4-4.2-0.4-6.3c-0.4-12.1,0.4-24.2,2.6-35.8c2.6-14.3,7.3-28.1,13.8-41.5c0.3,0.5,0.5,1.1,0.7,1.6
	c8.5,18.5,13.4,38.2,14.5,58.4c0.5,8.6,0.3,16.9-0.6,24.8c-0.3,2.5,0.6,4.2,2.9,5.4c1.2,0.6,2.5,1,4,1.3c0.1,0,0.2,0,0.3,0.1
	c0.6,0.5,1.3,0.9,2.1,0.9h4.8c1.6,0,2.9-1.2,3-2.8c0.1-1,0.2-2.1,0.3-3.1c0.2-2.3,0.4-4.7,0.5-7.1c0.6-13.8-0.3-27.1-2.7-39.8
	c-3.5-18.7-10.2-36.7-19.8-53.7c-0.2-0.4-0.4-0.7-0.6-1s-0.3-0.5-0.5-0.7c0.4-0.7,0.8-1.3,1.2-2c11.8-18.2,27-34.2,45-47.5
	c11.2-8.3,23.4-15.5,36.2-21.3c0.1-0.1,0.2-0.1,0.4-0.1c0.8-0.3,2.1-0.8,3-2.1c0.7-1,0.7-2.3,0-3.3c-1-1.5-2.4-1.9-3.1-2.1l-0.2-0.1
	c-1-0.3-1.9-0.6-2.9-0.9c-0.8-0.2-1.5-0.4-2.3-0.7c-1.4-0.4-2.7-0.5-3.7-0.5c-10.1-0.1-20.2-0.5-30-1.2c-6.7-0.5-13.4-1.2-19.8-2.1
	c-4.3-0.6-8.8-1.3-13.4-2.1c7.7-2.4,14.9-5.1,21.7-8.1c15.1-6.6,27.8-14.4,38.9-23.8c7.1-6,12.4-11.5,16.9-17.5
	c8.8-11.9,14.7-25.3,17.3-40C601.7,464.4,601.6,453.9,599.7,444z M531.6,576.8c3,0.4,6,0.6,8.9,0.9l2.6,0.2c1.9,0.2,4.1,0.4,6.6,0.5
	c-0.4,0.2-0.7,0.4-1.1,0.6c-3.5,2-6.7,3.8-9.7,5.8c-3.1,2-6.3,4.1-9.3,6.3c-3.1,2.2-6.2,4.5-9,6.8c-2.9,2.3-5.9,4.8-8.6,7.3
	c-2.7,2.5-5.6,5.1-8.2,7.8s-5.3,5.5-7.7,8.2c-2.3,2.6-4.8,5.5-7.2,8.7c-1.5,1.9-2.9,3.8-4.3,5.8c-13-17.7-29.3-33.1-48.6-45.8
	c-5.7-3.7-11.6-7.3-18.2-10.7c1.7-0.1,3.4-0.2,5.2-0.3c4.8-0.3,9.8-0.6,15.1-1.2c1.3-0.2,2.6-0.3,3.9-0.4c1.7-0.2,3.3-0.4,5.1-0.6
	l1.5-0.2c4.3-0.6,8.8-1.2,13.3-1.9c7.6-1.2,14.7-2.6,21.5-4.1c0.4-0.1,0.9-0.2,1.3-0.3c1.1-0.2,2.2-0.5,3.3-0.8
	c0.3-0.1,0.5-0.1,0.8,0c4.5,1,9.6,2.1,14.8,3.2c5.3,1.1,10.4,1.9,15.6,2.7c1.2,0.2,2.3,0.3,3.5,0.5
	C525.5,576,528.5,576.4,531.6,576.8z M71.9,578.1c3.1-0.2,6.5-0.5,9.6-0.8c5.7-0.6,11.2-1.3,16.5-2.1c7.4-1.1,13.8-2.2,19.7-3.4
	c3.5-0.7,7.2-1.5,11.3-2.5c0.3-0.1,0.5-0.1,0.9,0c7.3,1.7,13.9,3.1,20.2,4.2c5.5,1,11.3,1.9,17.2,2.6c1.6,0.2,3.1,0.4,4.8,0.6
	c3.3,0.4,6.9,0.8,10.3,1.1c2.6,0.2,5.5,0.5,8.3,0.7c-11.8,6.6-22.9,14.2-33,22.6c-12.2,10.3-23.1,21.8-32.2,34.5
	c-12.2-16.6-27.3-31.2-44.9-43.3c-6.8-4.7-14-9-21.7-13.2c3-0.1,6.1-0.3,9.3-0.6C69.5,578.3,70.7,578.2,71.9,578.1z M27.7,454.8
	c0.5-8.2,2-15.5,4.6-22.2c3.2-8.5,8.7-16.2,16.2-22.6c6.9-6,15.1-10.7,24.9-14.5c6.4-2.4,13.3-4.2,21-5.6c4.8-0.8,10-1.6,15.3-2.1
	c7.5-0.7,14.3-1.1,20.6-1.1c3.4,0,6.9,0.1,10.2,0.3c5.7,0.4,10.5,0.9,15,1.6c13.3,2.1,24.9,5.8,35.4,11.1c5.8,2.9,10.9,6.6,15.3,11
	c-4.6,5.6-8.3,11.7-10.9,18.3c-2.6,6.6-4.2,13.6-5,21.1c-0.7,6.8-0.4,13.7,0.8,21c1.3,8,3.7,15.9,7.4,23.7
	c2.6,5.6,5.4,10.5,8.5,14.9c-0.1,0.2-0.3,0.3-0.4,0.5c-5.7,7.1-12.4,13.6-20.6,19.5c-8.9,6.6-19.1,12.2-31.1,17.5
	c-9.7,4.2-20.1,7.9-31.9,11.2c-0.7,0.2-1.1,0.2-1.5,0.1c-15.1-4.5-28.1-9.8-39.9-16.4C70.1,535.6,60,527.8,51.5,519
	c-11.2-11.6-18.6-25.7-22.1-41.8C27.9,470.1,27.3,462.4,27.7,454.8z M489,386.8c2.6,0,5.2,0.1,7.7,0.2c9.1,0.4,17.3,1.4,25,3.1
	c10.7,2.3,19.8,5.5,27.9,9.7c17.2,8.9,28,23.2,32.3,42.5c1.6,7.5,2,15.4,1.2,23.5c-1.9,18.8-9,35.2-21.2,48.8
	c-6.9,7.6-15,14.4-24.8,20.5c-10.5,6.7-22.4,12.3-36.4,17.5c-5.5,2-11.3,3.8-18.4,6c-1,0.3-1.7,0.3-2.4,0.1
	c-14.7-4.3-27.2-9.5-38.4-15.8c-11.9-6.7-22.5-14.7-31.2-23.7c-1.9-2-3.6-3.8-5.2-5.8c0.4-0.5,0.7-0.9,1.1-1.4
	c3.5-5.2,6.6-10.7,9-16.5c5-11.7,7.5-24,7.5-36.3c0-2.3-0.2-4.7-0.3-6.9c-0.6-7.1-2.1-14-4.7-20.3c-2.9-7.7-7.1-14.5-12.3-20.3
	c1-1,2.1-1.8,3.2-2.8l0.5-0.4c6.4-5.2,13.8-9.3,22.6-12.6c6.6-2.5,13.6-4.3,21.5-5.7c4.1-0.7,9.6-1.6,15.3-2.1
	C475.7,387.1,482.4,386.8,489,386.8z M404.2,468.7c-0.9,6.9-2.5,13.4-4.9,19.4c-1.3,3.6-2.7,6.8-4.2,9.6c-4.1-8.5-6.9-17.5-8.1-26.8
	c-0.7-5.3-0.9-9.7-0.7-13.9c0.5-10,2.2-18.6,5.4-26.1c1.1-2.7,2.6-5.5,4.2-8.1c4.9,8.3,7.8,17.9,8.7,28.3
	C405.2,457.2,405,463,404.2,468.7z M224.5,463.6c-0.9,11.6-3.8,22.5-8.7,32.4c-4.5-9.6-7-19.6-7.8-30c-0.6-8.2,0-16.2,1.7-23.8
	c1.5-6.9,3.7-12.7,6.8-17.7c3,5.6,5.3,11.5,6.7,18.3C224.7,449.3,225.1,456.4,224.5,463.6z M251.5,578.2c1.6-0.1,3.3-0.2,5-0.4
	c3.7-0.4,7.4-0.8,11.1-1.2c1.9-0.2,3.8-0.5,5.7-0.7l2.3-0.3c6.7-0.9,13-1.9,19-3.2c5-1,9.8-2.1,14.9-3.2c0.2,0,0.3-0.1,0.4-0.1
	s0.2,0,0.3,0c6.8,1.6,12.3,2.8,17.5,3.7s10.7,1.9,16.3,2.6l4.2,0.5c3,0.4,6.1,0.8,9.1,1.1c1.8,0.2,3.6,0.4,5.4,0.5l3,0.2
	c1.8,0.2,3.6,0.3,5.6,0.4c-11.7,6.5-22.7,14-32.6,22.3c-12.3,10.3-23.4,22.1-32.7,34.9c-0.8-1.1-1.7-2.3-2.5-3.4
	c-10.2-13.3-22.3-25.1-35.7-35.1c-9-6.8-18.5-12.7-28.4-18c2.7-0.1,5.7-0.3,8.8-0.6C249.3,578.5,250.4,578.3,251.5,578.2z
	 M369.4,445.6c-2,13.4-0.6,27,4.1,40.8c3,8.6,7.3,16.9,12.7,24.7c-7.2,8.8-16,16.6-27,23.6c-9.1,5.9-19.3,11-31.1,15.7
	c-7.7,3-15.9,5.9-25,8.4c-0.7,0.2-1.1,0.2-1.5,0.1c-13.7-4-25.5-8.7-36.2-14.4c-13.7-7.3-25-15.8-34.6-26c-1.8-1.9-3.4-3.9-5.2-6.1
	c7.9-11.5,13-24.3,15.4-37.9c1.4-8.3,1.7-16.5,0.8-24.2c-1.7-14.5-7.1-27.1-15.9-37.6c0.8-0.8,1.7-1.6,2.5-2.3
	c6.6-5.8,14.4-10.4,23.8-14.2c7-2.7,14.6-4.8,22.6-6.1c1-0.2,2-0.3,3-0.5c2.6-0.4,5.4-0.9,8-1.2c3.1-0.4,6.3-0.6,9.4-0.9l2.4-0.2
	c5.3-0.4,10.7-0.6,17.4-0.4c5.3,0.1,10.6,0.6,16.2,1.2c7.9,1,15.5,2.5,22.6,4.8c7.6,2.3,14.1,5.1,19.8,8.3c4.5,2.5,8.4,5.5,11.8,8.7
	C377,419.9,371.5,431.9,369.4,445.6z M215.5,570c-1,0-1.9,0.1-2.6,0.4c-1.8-0.4-3.5-0.4-5.2-0.4h-1c-6.7-0.1-13.5-0.4-19.9-0.7
	c-5.5-0.3-10.4-0.7-15.4-1.2c-5.6-0.6-11.2-1.3-16.7-2.1c-2.8-0.4-5.7-0.9-8.4-1.4c3.3-1,6.5-2.1,9.5-3.2
	c14.2-5.2,26.4-11.1,37.4-18.3c9.1-6,17.3-12.7,24.3-20.1c7.7,8.1,16.8,15.3,27.8,21.7c11.8,7,25.5,12.9,41.7,18.2h0.1
	c-4.5,0.9-8.8,1.8-13,2.5c-5,0.8-9.9,1.5-14.8,2.1c-7.6,0.9-14.5,1.5-21.2,1.9c-6.1,0.3-14.1,0.8-22.1,0.8
	C215.7,570,215.6,570,215.5,570z M393.8,570c-0.5,0-1.2,0-2,0.2c-0.1,0-0.1,0-0.2,0c-0.7-0.1-1.4-0.2-2.2-0.2
	c-2.1-0.1-4.2-0.1-6.5-0.2c-4.1-0.1-8.4-0.2-12.6-0.4c-6.1-0.3-11.1-0.7-15.9-1.1c-4.5-0.4-9.3-0.9-14.2-1.6
	c-4.8-0.6-9.4-1.4-14-2.2c6.2-1.9,11.8-3.9,17.2-6.2c15.2-6.2,28-13.5,39.2-22.2c5.3-4.1,9.9-8.2,14-12.5
	c7.6,7.9,16.6,14.9,27.6,21.2c11.2,6.6,23.7,12,38.3,16.9c0.9,0.3,1.9,0.6,2.8,0.9c-3.7,0.8-7.6,1.6-11.5,2.2l-2.6,0.4
	c-3.8,0.6-7.8,1.3-11.7,1.7c-5.1,0.6-10.4,1.2-15.8,1.6c-9.5,0.8-19.3,1.2-29.7,1.3L393.8,570z"/>
<path opacity="5.000000e-02" fill="#FFFFFF" stroke="#000000" stroke-width="3" stroke-miterlimit="10" d="M599.7,444
	c-3.3-17.1-12-31.1-25.6-41.6c-6.7-5.2-14.4-9.4-23.7-12.9c-10.6-4.1-22.5-7.2-37.3-9.5c-6.4-1-12.2-1.7-17.9-1.9
	c-0.5-0.3-1-0.5-1.6-0.5H468c-0.6,0-1.1,0.2-1.6,0.5c-5.5,0.2-10.6,0.9-15.1,1.5c-8.8,1.2-19.2,2.9-29.3,6.6
	c-10.8,3.8-19.9,8.9-27.7,15.5c-3.9-2.8-8.3-5.5-12.8-7.8c-6.3-3.1-13.2-5.8-20.9-8.1c-8.5-2.4-17.6-4.5-27.1-5.9
	c-5.8-0.8-13.4-1.8-21.2-1.9h-0.5c-1,0-2,0-2.7-0.2c-0.3-0.1-0.5-0.1-0.8-0.1H296c-0.3,0-0.5,0-0.8,0.1c-1,0.3-2,0.3-3.1,0.3h-1.3
	c-3.8,0-7.6,0.4-11.1,0.7c-4.5,0.5-8.8,1.1-12.9,1.8c-6.6,1-12.3,2.3-17.7,3.8c-10.8,3-20,7.5-28.1,13.3c-1.9,1.4-3.8,2.8-5.7,4.3
	c-7.2-5.5-15.7-9.9-25.7-13.6c-7.4-2.6-15.5-4.9-24.8-6.8c-6.2-1.2-11.3-2.1-16.1-2.6l-1.9-0.2c-3.2-0.4-6.5-0.8-9.8-0.9
	c-0.5-0.3-1.1-0.5-1.7-0.5h-18.4c-0.1,0-0.2,0-0.3,0c-2.4,0.2-4.9,0.3-7.3,0.4c-3.5,0.2-7.3,0.4-10.9,0.8c-5.4,0.6-12.4,1.6-19.6,3
	c-12.5,2.5-23.4,6.7-33.2,12.6c-9.8,6.1-17.8,13.7-23.7,22.7c-5.6,8.5-9.2,18.1-10.7,28.6c-0.1,0.9-0.2,1.9-0.3,2.8
	c-0.1,0.5-0.1,1.1-0.2,1.6c0,0.2,0,0.3-0.1,0.5v0.1c-0.5,0.6-0.8,1.3-0.8,2v9.9c0,0.8,0.3,1.5,0.8,2.1c0,0.1,0,0.2,0,0.3
	c0.3,4.2,1.1,8.6,2.3,13.3c3.7,14.7,10.9,28.3,21.3,40.6c6.7,7.8,14.8,14.8,24.7,21.3c10.6,7,22.7,13,36.9,18.3
	c3.7,1.4,7.4,2.6,11.1,3.8c-8,1.7-16.1,3-24.3,4.1c-7.2,0.9-14.2,1.6-20.7,2.1c-8.9,0.6-17.6,1-25.8,1c-0.9,0-1.6,0-2.2,0.1
	c-1.4,0.2-2.6,1.2-3,2.6c-0.4,1.5,0.2,3.2,1.5,4c0.7,0.4,1.6,0.9,2.6,1.4c14.5,6.6,28,14.8,40.4,24.4c16.8,13.2,30.9,28.6,41.9,46
	l0.2,0.3c0,0.1-0.1,0.2-0.2,0.3c-6.8,11.3-12.1,23.3-16,35.4c-4,12.5-6.5,25.5-7.5,38.4c-0.6,9-0.6,18.1,0.2,27.8
	c0,0.5,0.1,1,0.2,1.5c0,0.2,0.1,0.5,0.1,0.7c0.2,1.5,1.1,2.8,2.5,3.6c0.7,0.4,1.4,0.7,2.2,0.9c1.6,0.5,3.1,0.7,4.7,0.9
	c0.4,0.1,0.8,0.1,1.2,0.2c0.8,0.1,1.6,0.1,2.5,0.1c0.5,0,2-0.1,3.1-1.4c1.1-1.2,1-2.8,0.9-3.4c-0.1-0.8-0.1-1.6-0.2-2.4
	c-0.1-1.5-0.3-2.9-0.3-4.3c-0.3-8.6-0.3-15.6,0.2-22.1c0.7-9.5,2.3-19,4.8-28.3c2.7-10.3,6.5-20.4,11.2-30
	c3.5,7.6,6.6,15.4,8.9,23.5c2.4,8.3,4.2,16.8,5.3,25.2c0.4,3.5,0.8,7.3,1,11.5c0.3,5.8,0.3,11.3,0,16.6c-0.2,3.2-0.4,5.8-0.6,8.2
	c-0.2,2.3,0.8,4.1,2.8,5.2c1.2,0.6,2.6,1,4,1.3c0.2,0,0.4,0.1,0.5,0.1c0,0,0,0,0.1,0c0.6,0.5,1.3,0.8,2.1,0.8h4.2
	c1.2,0,2.3-0.7,2.7-1.8c0.4-1,0.7-2,0.8-3.1c0.1-1.3,0.2-2.6,0.3-3.9c0.2-2.4,0.4-5,0.5-7.5c0.4-12.2-0.5-24.6-2.8-36.9
	c-3.1-16.4-8.6-32.2-16.4-47c-1.5-2.9-3.1-5.8-4.5-8.1c0.4-0.6,0.8-1.2,1.2-1.8s0.8-1.3,1.2-1.9c14-20.8,32.2-38.6,54.2-52.9
	c8-5.2,16.5-9.9,26-14.3c0.2,0.1,0.4,0.1,0.5,0.2c19.7,9.5,37.5,22,52.9,37.1c7.1,7.1,13.6,14.6,19.1,22.5c1.1,1.6,2.2,3.2,3.3,4.9
	c0.9,1.4,1.9,2.9,2.9,4.3c-1,1.5-1.8,3-2.7,4.6l-0.1,0.2c-12.4,22.5-19.5,46.5-21,71.6c-0.5,8.4-0.4,17.1,0.4,26
	c0,0.3,0.1,0.5,0.1,0.7c0,0.1,0,0.2,0,0.3c0.1,2.3,1.5,4.1,3.8,5c3.1,1,6.1,1.5,9.2,1.4c0.6,0,2.1-0.1,3.2-1.3c1.1-1.3,1-2.9,1-3.6
	c-0.1-0.7-0.1-1.4-0.2-2.1c-0.1-1.4-0.3-2.7-0.3-4.1c-0.2-6.7-0.4-14.5,0.2-22.1c0.5-6.8,1.5-13.6,2.8-20.2
	c2.7-13.2,7.1-26.1,13.2-38.4c5.1,10.8,8.9,22,11.4,33.1c1.5,6.7,2.6,13.5,3.2,20.1c0.2,1.7,0.3,3.4,0.4,5.2
	c0.1,0.9,0.1,1.9,0.2,2.8c0.3,4.8,0.3,9.7,0,14.7c-0.1,0.9-0.1,1.9-0.2,2.8c-0.1,2-0.2,3.9-0.4,5.9c-0.4,3.2,0.9,4.6,3.2,5.7
	c1.3,0.6,2.5,0.9,3.5,1.1c0.2,0,0.3,0.1,0.5,0.1h0.1c0.6,0.5,1.3,0.8,2.1,0.8h4.2c1.3,0,2.4-0.8,2.8-2l0.1-0.1
	c0.2-0.6,0.5-1.4,0.6-2.4c0.5-5.5,0.8-9.7,0.8-13.7c0.1-4.2,0-8.6-0.3-12.7c-0.5-8.6-1.6-17.3-3.4-25.7
	c-3.6-17.4-10.2-34.3-19.4-50.3c-0.3-0.5-0.6-1-0.8-1.3c0-0.1,0.1-0.1,0.1-0.2c0.2-0.3,0.5-0.7,0.7-1.1
	c11.1-17.2,25.3-32.7,42.3-45.7c11.3-8.8,23.9-16.5,37.2-22.8c0.5-0.2,1-0.5,1.5-0.8c0.1,0,0.2,0.1,0.3,0.1c1,0.5,2,1,2.9,1.5
	c1.8,0.9,3.7,1.9,5.6,2.9c23.2,12.6,42.9,29.2,58.6,49.2c3.5,4.5,7,9.3,10.5,15c-1.5,2.4-2.8,4.9-4.1,7.4
	c-12,22.6-18.7,46.9-19.8,72.4c-0.3,6.3-0.1,13,0.5,20.6c0,0.6,0.1,1.2,0.2,1.8c0.1,0.5,0.1,1,0.2,1.5c0.1,1.8,1.1,3.2,2.7,4.1
	c0.8,0.4,1.4,0.7,2.1,0.8c2.1,0.6,4.3,1,6.7,1.1c0.7,0,1.3,0,2.2-0.1c2.2-0.3,3.6-2,3.5-4.2c0-0.3,0-0.6-0.1-0.8v-0.3
	c-0.1-1-0.2-2-0.2-3c-0.2-2.1-0.4-4.2-0.4-6.3c-0.4-12.1,0.4-24.2,2.6-35.8c2.6-14.3,7.3-28.1,13.8-41.5c0.3,0.5,0.5,1.1,0.7,1.6
	c8.5,18.5,13.4,38.2,14.5,58.4c0.5,8.6,0.3,16.9-0.6,24.8c-0.3,2.5,0.6,4.2,2.9,5.4c1.2,0.6,2.5,1,4,1.3c0.1,0,0.2,0,0.3,0.1
	c0.6,0.5,1.3,0.9,2.1,0.9h4.8c1.6,0,2.9-1.2,3-2.8c0.1-1,0.2-2.1,0.3-3.1c0.2-2.3,0.4-4.7,0.5-7.1c0.6-13.8-0.3-27.1-2.7-39.8
	c-3.5-18.7-10.2-36.7-19.8-53.7c-0.2-0.4-0.4-0.7-0.6-1s-0.3-0.5-0.5-0.7c0.4-0.7,0.8-1.3,1.2-2c11.8-18.2,27-34.2,45-47.5
	c11.2-8.3,23.4-15.5,36.2-21.3c0.1-0.1,0.2-0.1,0.4-0.1c0.8-0.3,2.1-0.8,3-2.1c0.7-1,0.7-2.3,0-3.3c-1-1.5-2.4-1.9-3.1-2.1l-0.2-0.1
	c-1-0.3-1.9-0.6-2.9-0.9c-0.8-0.2-1.5-0.4-2.3-0.7c-1.4-0.4-2.7-0.5-3.7-0.5c-10.1-0.1-20.2-0.5-30-1.2c-6.7-0.5-13.4-1.2-19.8-2.1
	c-4.3-0.6-8.8-1.3-13.4-2.1c7.7-2.4,14.9-5.1,21.7-8.1c15.1-6.6,27.8-14.4,38.9-23.8c7.1-6,12.4-11.5,16.9-17.5
	c8.8-11.9,14.7-25.3,17.3-40C601.7,464.4,601.6,453.9,599.7,444z M531.6,576.8c3,0.4,6,0.6,8.9,0.9l2.6,0.2c1.9,0.2,4.1,0.4,6.6,0.5
	c-0.4,0.2-0.7,0.4-1.1,0.6c-3.5,2-6.7,3.8-9.7,5.8c-3.1,2-6.3,4.1-9.3,6.3c-3.1,2.2-6.2,4.5-9,6.8c-2.9,2.3-5.9,4.8-8.6,7.3
	c-2.7,2.5-5.6,5.1-8.2,7.8s-5.3,5.5-7.7,8.2c-2.3,2.6-4.8,5.5-7.2,8.7c-1.5,1.9-2.9,3.8-4.3,5.8c-13-17.7-29.3-33.1-48.6-45.8
	c-5.7-3.7-11.6-7.3-18.2-10.7c1.7-0.1,3.4-0.2,5.2-0.3c4.8-0.3,9.8-0.6,15.1-1.2c1.3-0.2,2.6-0.3,3.9-0.4c1.7-0.2,3.3-0.4,5.1-0.6
	l1.5-0.2c4.3-0.6,8.8-1.2,13.3-1.9c7.6-1.2,14.7-2.6,21.5-4.1c0.4-0.1,0.9-0.2,1.3-0.3c1.1-0.2,2.2-0.5,3.3-0.8
	c0.3-0.1,0.5-0.1,0.8,0c4.5,1,9.6,2.1,14.8,3.2c5.3,1.1,10.4,1.9,15.6,2.7c1.2,0.2,2.3,0.3,3.5,0.5
	C525.5,576,528.5,576.4,531.6,576.8z M71.9,578.1c3.1-0.2,6.5-0.5,9.6-0.8c5.7-0.6,11.2-1.3,16.5-2.1c7.4-1.1,13.8-2.2,19.7-3.4
	c3.5-0.7,7.2-1.5,11.3-2.5c0.3-0.1,0.5-0.1,0.9,0c7.3,1.7,13.9,3.1,20.2,4.2c5.5,1,11.3,1.9,17.2,2.6c1.6,0.2,3.1,0.4,4.8,0.6
	c3.3,0.4,6.9,0.8,10.3,1.1c2.6,0.2,5.5,0.5,8.3,0.7c-11.8,6.6-22.9,14.2-33,22.6c-12.2,10.3-23.1,21.8-32.2,34.5
	c-12.2-16.6-27.3-31.2-44.9-43.3c-6.8-4.7-14-9-21.7-13.2c3-0.1,6.1-0.3,9.3-0.6C69.5,578.3,70.7,578.2,71.9,578.1z M27.7,454.8
	c0.5-8.2,2-15.5,4.6-22.2c3.2-8.5,8.7-16.2,16.2-22.6c6.9-6,15.1-10.7,24.9-14.5c6.4-2.4,13.3-4.2,21-5.6c4.8-0.8,10-1.6,15.3-2.1
	c7.5-0.7,14.3-1.1,20.6-1.1c3.4,0,6.9,0.1,10.2,0.3c5.7,0.4,10.5,0.9,15,1.6c13.3,2.1,24.9,5.8,35.4,11.1c5.8,2.9,10.9,6.6,15.3,11
	c-4.6,5.6-8.3,11.7-10.9,18.3c-2.6,6.6-4.2,13.6-5,21.1c-0.7,6.8-0.4,13.7,0.8,21c1.3,8,3.7,15.9,7.4,23.7
	c2.6,5.6,5.4,10.5,8.5,14.9c-0.1,0.2-0.3,0.3-0.4,0.5c-5.7,7.1-12.4,13.6-20.6,19.5c-8.9,6.6-19.1,12.2-31.1,17.5
	c-9.7,4.2-20.1,7.9-31.9,11.2c-0.7,0.2-1.1,0.2-1.5,0.1c-15.1-4.5-28.1-9.8-39.9-16.4C70.1,535.6,60,527.8,51.5,519
	c-11.2-11.6-18.6-25.7-22.1-41.8C27.9,470.1,27.3,462.4,27.7,454.8z M489,386.8c2.6,0,5.2,0.1,7.7,0.2c9.1,0.4,17.3,1.4,25,3.1
	c10.7,2.3,19.8,5.5,27.9,9.7c17.2,8.9,28,23.2,32.3,42.5c1.6,7.5,2,15.4,1.2,23.5c-1.9,18.8-9,35.2-21.2,48.8
	c-6.9,7.6-15,14.4-24.8,20.5c-10.5,6.7-22.4,12.3-36.4,17.5c-5.5,2-11.3,3.8-18.4,6c-1,0.3-1.7,0.3-2.4,0.1
	c-14.7-4.3-27.2-9.5-38.4-15.8c-11.9-6.7-22.5-14.7-31.2-23.7c-1.9-2-3.6-3.8-5.2-5.8c0.4-0.5,0.7-0.9,1.1-1.4
	c3.5-5.2,6.6-10.7,9-16.5c5-11.7,7.5-24,7.5-36.3c0-2.3-0.2-4.7-0.3-6.9c-0.6-7.1-2.1-14-4.7-20.3c-2.9-7.7-7.1-14.5-12.3-20.3
	c1-1,2.1-1.8,3.2-2.8l0.5-0.4c6.4-5.2,13.8-9.3,22.6-12.6c6.6-2.5,13.6-4.3,21.5-5.7c4.1-0.7,9.6-1.6,15.3-2.1
	C475.7,387.1,482.4,386.8,489,386.8z M404.2,468.7c-0.9,6.9-2.5,13.4-4.9,19.4c-1.3,3.6-2.7,6.8-4.2,9.6c-4.1-8.5-6.9-17.5-8.1-26.8
	c-0.7-5.3-0.9-9.7-0.7-13.9c0.5-10,2.2-18.6,5.4-26.1c1.1-2.7,2.6-5.5,4.2-8.1c4.9,8.3,7.8,17.9,8.7,28.3
	C405.2,457.2,405,463,404.2,468.7z M224.5,463.6c-0.9,11.6-3.8,22.5-8.7,32.4c-4.5-9.6-7-19.6-7.8-30c-0.6-8.2,0-16.2,1.7-23.8
	c1.5-6.9,3.7-12.7,6.8-17.7c3,5.6,5.3,11.5,6.7,18.3C224.7,449.3,225.1,456.4,224.5,463.6z M251.5,578.2c1.6-0.1,3.3-0.2,5-0.4
	c3.7-0.4,7.4-0.8,11.1-1.2c1.9-0.2,3.8-0.5,5.7-0.7l2.3-0.3c6.7-0.9,13-1.9,19-3.2c5-1,9.8-2.1,14.9-3.2c0.2,0,0.3-0.1,0.4-0.1
	s0.2,0,0.3,0c6.8,1.6,12.3,2.8,17.5,3.7s10.7,1.9,16.3,2.6l4.2,0.5c3,0.4,6.1,0.8,9.1,1.1c1.8,0.2,3.6,0.4,5.4,0.5l3,0.2
	c1.8,0.2,3.6,0.3,5.6,0.4c-11.7,6.5-22.7,14-32.6,22.3c-12.3,10.3-23.4,22.1-32.7,34.9c-0.8-1.1-1.7-2.3-2.5-3.4
	c-10.2-13.3-22.3-25.1-35.7-35.1c-9-6.8-18.5-12.7-28.4-18c2.7-0.1,5.7-0.3,8.8-0.6C249.3,578.5,250.4,578.3,251.5,578.2z
	 M369.4,445.6c-2,13.4-0.6,27,4.1,40.8c3,8.6,7.3,16.9,12.7,24.7c-7.2,8.8-16,16.6-27,23.6c-9.1,5.9-19.3,11-31.1,15.7
	c-7.7,3-15.9,5.9-25,8.4c-0.7,0.2-1.1,0.2-1.5,0.1c-13.7-4-25.5-8.7-36.2-14.4c-13.7-7.3-25-15.8-34.6-26c-1.8-1.9-3.4-3.9-5.2-6.1
	c7.9-11.5,13-24.3,15.4-37.9c1.4-8.3,1.7-16.5,0.8-24.2c-1.7-14.5-7.1-27.1-15.9-37.6c0.8-0.8,1.7-1.6,2.5-2.3
	c6.6-5.8,14.4-10.4,23.8-14.2c7-2.7,14.6-4.8,22.6-6.1c1-0.2,2-0.3,3-0.5c2.6-0.4,5.4-0.9,8-1.2c3.1-0.4,6.3-0.6,9.4-0.9l2.4-0.2
	c5.3-0.4,10.7-0.6,17.4-0.4c5.3,0.1,10.6,0.6,16.2,1.2c7.9,1,15.5,2.5,22.6,4.8c7.6,2.3,14.1,5.1,19.8,8.3c4.5,2.5,8.4,5.5,11.8,8.7
	C377,419.9,371.5,431.9,369.4,445.6z M215.5,570c-1,0-1.9,0.1-2.6,0.4c-1.8-0.4-3.5-0.4-5.2-0.4h-1c-6.7-0.1-13.5-0.4-19.9-0.7
	c-5.5-0.3-10.4-0.7-15.4-1.2c-5.6-0.6-11.2-1.3-16.7-2.1c-2.8-0.4-5.7-0.9-8.4-1.4c3.3-1,6.5-2.1,9.5-3.2
	c14.2-5.2,26.4-11.1,37.4-18.3c9.1-6,17.3-12.7,24.3-20.1c7.7,8.1,16.8,15.3,27.8,21.7c11.8,7,25.5,12.9,41.7,18.2h0.1
	c-4.5,0.9-8.8,1.8-13,2.5c-5,0.8-9.9,1.5-14.8,2.1c-7.6,0.9-14.5,1.5-21.2,1.9c-6.1,0.3-14.1,0.8-22.1,0.8
	C215.7,570,215.6,570,215.5,570z M393.8,570c-0.5,0-1.2,0-2,0.2c-0.1,0-0.1,0-0.2,0c-0.7-0.1-1.4-0.2-2.2-0.2
	c-2.1-0.1-4.2-0.1-6.5-0.2c-4.1-0.1-8.4-0.2-12.6-0.4c-6.1-0.3-11.1-0.7-15.9-1.1c-4.5-0.4-9.3-0.9-14.2-1.6
	c-4.8-0.6-9.4-1.4-14-2.2c6.2-1.9,11.8-3.9,17.2-6.2c15.2-6.2,28-13.5,39.2-22.2c5.3-4.1,9.9-8.2,14-12.5
	c7.6,7.9,16.6,14.9,27.6,21.2c11.2,6.6,23.7,12,38.3,16.9c0.9,0.3,1.9,0.6,2.8,0.9c-3.7,0.8-7.6,1.6-11.5,2.2l-2.6,0.4
	c-3.8,0.6-7.8,1.3-11.7,1.7c-5.1,0.6-10.4,1.2-15.8,1.6c-9.5,0.8-19.3,1.2-29.7,1.3L393.8,570z"/>
<path opacity="5.000000e-02" fill="#FFFFFF" stroke="#000000" stroke-miterlimit="10" d="M599.7,444c-3.3-17.1-12-31.1-25.6-41.6
	c-6.7-5.2-14.4-9.4-23.7-12.9c-10.6-4.1-22.5-7.2-37.3-9.5c-6.4-1-12.2-1.7-17.9-1.9c-0.5-0.3-1-0.5-1.6-0.5H468
	c-0.6,0-1.1,0.2-1.6,0.5c-5.5,0.2-10.6,0.9-15.1,1.5c-8.8,1.2-19.2,2.9-29.3,6.6c-10.8,3.8-19.9,8.9-27.7,15.5
	c-3.9-2.8-8.3-5.5-12.8-7.8c-6.3-3.1-13.2-5.8-20.9-8.1c-8.5-2.4-17.6-4.5-27.1-5.9c-5.8-0.8-13.4-1.8-21.2-1.9h-0.5
	c-1,0-2,0-2.7-0.2c-0.3-0.1-0.5-0.1-0.8-0.1H296c-0.3,0-0.5,0-0.8,0.1c-1,0.3-2,0.3-3.1,0.3h-1.3c-3.8,0-7.6,0.4-11.1,0.7
	c-4.5,0.5-8.8,1.1-12.9,1.8c-6.6,1-12.3,2.3-17.7,3.8c-10.8,3-20,7.5-28.1,13.3c-1.9,1.4-3.8,2.8-5.7,4.3
	c-7.2-5.5-15.7-9.9-25.7-13.6c-7.4-2.6-15.5-4.9-24.8-6.8c-6.2-1.2-11.3-2.1-16.1-2.6l-1.9-0.2c-3.2-0.4-6.5-0.8-9.8-0.9
	c-0.5-0.3-1.1-0.5-1.7-0.5h-18.4c-0.1,0-0.2,0-0.3,0c-2.4,0.2-4.9,0.3-7.3,0.4c-3.5,0.2-7.3,0.4-10.9,0.8c-5.4,0.6-12.4,1.6-19.6,3
	c-12.5,2.5-23.4,6.7-33.2,12.6c-9.8,6.1-17.8,13.7-23.7,22.7c-5.6,8.5-9.2,18.1-10.7,28.6c-0.1,0.9-0.2,1.9-0.3,2.8
	c-0.1,0.5-0.1,1.1-0.2,1.6c0,0.2,0,0.3-0.1,0.5v0.1c-0.5,0.6-0.8,1.3-0.8,2v9.9c0,0.8,0.3,1.5,0.8,2.1c0,0.1,0,0.2,0,0.3
	c0.3,4.2,1.1,8.6,2.3,13.3c3.7,14.7,10.9,28.3,21.3,40.6c6.7,7.8,14.8,14.8,24.7,21.3c10.6,7,22.7,13,36.9,18.3
	c3.7,1.4,7.4,2.6,11.1,3.8c-8,1.7-16.1,3-24.3,4.1c-7.2,0.9-14.2,1.6-20.7,2.1c-8.9,0.6-17.6,1-25.8,1c-0.9,0-1.6,0-2.2,0.1
	c-1.4,0.2-2.6,1.2-3,2.6c-0.4,1.5,0.2,3.2,1.5,4c0.7,0.4,1.6,0.9,2.6,1.4c14.5,6.6,28,14.8,40.4,24.4c16.8,13.2,30.9,28.6,41.9,46
	l0.2,0.3c0,0.1-0.1,0.2-0.2,0.3c-6.8,11.3-12.1,23.3-16,35.4c-4,12.5-6.5,25.5-7.5,38.4c-0.6,9-0.6,18.1,0.2,27.8
	c0,0.5,0.1,1,0.2,1.5c0,0.2,0.1,0.5,0.1,0.7c0.2,1.5,1.1,2.8,2.5,3.6c0.7,0.4,1.4,0.7,2.2,0.9c1.6,0.5,3.1,0.7,4.7,0.9
	c0.4,0.1,0.8,0.1,1.2,0.2c0.8,0.1,1.6,0.1,2.5,0.1c0.5,0,2-0.1,3.1-1.4c1.1-1.2,1-2.8,0.9-3.4c-0.1-0.8-0.1-1.6-0.2-2.4
	c-0.1-1.5-0.3-2.9-0.3-4.3c-0.3-8.6-0.3-15.6,0.2-22.1c0.7-9.5,2.3-19,4.8-28.3c2.7-10.3,6.5-20.4,11.2-30
	c3.5,7.6,6.6,15.4,8.9,23.5c2.4,8.3,4.2,16.8,5.3,25.2c0.4,3.5,0.8,7.3,1,11.5c0.3,5.8,0.3,11.3,0,16.6c-0.2,3.2-0.4,5.8-0.6,8.2
	c-0.2,2.3,0.8,4.1,2.8,5.2c1.2,0.6,2.6,1,4,1.3c0.2,0,0.4,0.1,0.5,0.1c0,0,0,0,0.1,0c0.6,0.5,1.3,0.8,2.1,0.8h4.2
	c1.2,0,2.3-0.7,2.7-1.8c0.4-1,0.7-2,0.8-3.1c0.1-1.3,0.2-2.6,0.3-3.9c0.2-2.4,0.4-5,0.5-7.5c0.4-12.2-0.5-24.6-2.8-36.9
	c-3.1-16.4-8.6-32.2-16.4-47c-1.5-2.9-3.1-5.8-4.5-8.1c0.4-0.6,0.8-1.2,1.2-1.8s0.8-1.3,1.2-1.9c14-20.8,32.2-38.6,54.2-52.9
	c8-5.2,16.5-9.9,26-14.3c0.2,0.1,0.4,0.1,0.5,0.2c19.7,9.5,37.5,22,52.9,37.1c7.1,7.1,13.6,14.6,19.1,22.5c1.1,1.6,2.2,3.2,3.3,4.9
	c0.9,1.4,1.9,2.9,2.9,4.3c-1,1.5-1.8,3-2.7,4.6l-0.1,0.2c-12.4,22.5-19.5,46.5-21,71.6c-0.5,8.4-0.4,17.1,0.4,26
	c0,0.3,0.1,0.5,0.1,0.7c0,0.1,0,0.2,0,0.3c0.1,2.3,1.5,4.1,3.8,5c3.1,1,6.1,1.5,9.2,1.4c0.6,0,2.1-0.1,3.2-1.3c1.1-1.3,1-2.9,1-3.6
	c-0.1-0.7-0.1-1.4-0.2-2.1c-0.1-1.4-0.3-2.7-0.3-4.1c-0.2-6.7-0.4-14.5,0.2-22.1c0.5-6.8,1.5-13.6,2.8-20.2
	c2.7-13.2,7.1-26.1,13.2-38.4c5.1,10.8,8.9,22,11.4,33.1c1.5,6.7,2.6,13.5,3.2,20.1c0.2,1.7,0.3,3.4,0.4,5.2
	c0.1,0.9,0.1,1.9,0.2,2.8c0.3,4.8,0.3,9.7,0,14.7c-0.1,0.9-0.1,1.9-0.2,2.8c-0.1,2-0.2,3.9-0.4,5.9c-0.4,3.2,0.9,4.6,3.2,5.7
	c1.3,0.6,2.5,0.9,3.5,1.1c0.2,0,0.3,0.1,0.5,0.1h0.1c0.6,0.5,1.3,0.8,2.1,0.8h4.2c1.3,0,2.4-0.8,2.8-2l0.1-0.1
	c0.2-0.6,0.5-1.4,0.6-2.4c0.5-5.5,0.8-9.7,0.8-13.7c0.1-4.2,0-8.6-0.3-12.7c-0.5-8.6-1.6-17.3-3.4-25.7
	c-3.6-17.4-10.2-34.3-19.4-50.3c-0.3-0.5-0.6-1-0.8-1.3c0-0.1,0.1-0.1,0.1-0.2c0.2-0.3,0.5-0.7,0.7-1.1
	c11.1-17.2,25.3-32.7,42.3-45.7c11.3-8.8,23.9-16.5,37.2-22.8c0.5-0.2,1-0.5,1.5-0.8c0.1,0,0.2,0.1,0.3,0.1c1,0.5,2,1,2.9,1.5
	c1.8,0.9,3.7,1.9,5.6,2.9c23.2,12.6,42.9,29.2,58.6,49.2c3.5,4.5,7,9.3,10.5,15c-1.5,2.4-2.8,4.9-4.1,7.4
	c-12,22.6-18.7,46.9-19.8,72.4c-0.3,6.3-0.1,13,0.5,20.6c0,0.6,0.1,1.2,0.2,1.8c0.1,0.5,0.1,1,0.2,1.5c0.1,1.8,1.1,3.2,2.7,4.1
	c0.8,0.4,1.4,0.7,2.1,0.8c2.1,0.6,4.3,1,6.7,1.1c0.7,0,1.3,0,2.2-0.1c2.2-0.3,3.6-2,3.5-4.2c0-0.3,0-0.6-0.1-0.8v-0.3
	c-0.1-1-0.2-2-0.2-3c-0.2-2.1-0.4-4.2-0.4-6.3c-0.4-12.1,0.4-24.2,2.6-35.8c2.6-14.3,7.3-28.1,13.8-41.5c0.3,0.5,0.5,1.1,0.7,1.6
	c8.5,18.5,13.4,38.2,14.5,58.4c0.5,8.6,0.3,16.9-0.6,24.8c-0.3,2.5,0.6,4.2,2.9,5.4c1.2,0.6,2.5,1,4,1.3c0.1,0,0.2,0,0.3,0.1
	c0.6,0.5,1.3,0.9,2.1,0.9h4.8c1.6,0,2.9-1.2,3-2.8c0.1-1,0.2-2.1,0.3-3.1c0.2-2.3,0.4-4.7,0.5-7.1c0.6-13.8-0.3-27.1-2.7-39.8
	c-3.5-18.7-10.2-36.7-19.8-53.7c-0.2-0.4-0.4-0.7-0.6-1s-0.3-0.5-0.5-0.7c0.4-0.7,0.8-1.3,1.2-2c11.8-18.2,27-34.2,45-47.5
	c11.2-8.3,23.4-15.5,36.2-21.3c0.1-0.1,0.2-0.1,0.4-0.1c0.8-0.3,2.1-0.8,3-2.1c0.7-1,0.7-2.3,0-3.3c-1-1.5-2.4-1.9-3.1-2.1l-0.2-0.1
	c-1-0.3-1.9-0.6-2.9-0.9c-0.8-0.2-1.5-0.4-2.3-0.7c-1.4-0.4-2.7-0.5-3.7-0.5c-10.1-0.1-20.2-0.5-30-1.2c-6.7-0.5-13.4-1.2-19.8-2.1
	c-4.3-0.6-8.8-1.3-13.4-2.1c7.7-2.4,14.9-5.1,21.7-8.1c15.1-6.6,27.8-14.4,38.9-23.8c7.1-6,12.4-11.5,16.9-17.5
	c8.8-11.9,14.7-25.3,17.3-40C601.7,464.4,601.6,453.9,599.7,444z M531.6,576.8c3,0.4,6,0.6,8.9,0.9l2.6,0.2c1.9,0.2,4.1,0.4,6.6,0.5
	c-0.4,0.2-0.7,0.4-1.1,0.6c-3.5,2-6.7,3.8-9.7,5.8c-3.1,2-6.3,4.1-9.3,6.3c-3.1,2.2-6.2,4.5-9,6.8c-2.9,2.3-5.9,4.8-8.6,7.3
	c-2.7,2.5-5.6,5.1-8.2,7.8s-5.3,5.5-7.7,8.2c-2.3,2.6-4.8,5.5-7.2,8.7c-1.5,1.9-2.9,3.8-4.3,5.8c-13-17.7-29.3-33.1-48.6-45.8
	c-5.7-3.7-11.6-7.3-18.2-10.7c1.7-0.1,3.4-0.2,5.2-0.3c4.8-0.3,9.8-0.6,15.1-1.2c1.3-0.2,2.6-0.3,3.9-0.4c1.7-0.2,3.3-0.4,5.1-0.6
	l1.5-0.2c4.3-0.6,8.8-1.2,13.3-1.9c7.6-1.2,14.7-2.6,21.5-4.1c0.4-0.1,0.9-0.2,1.3-0.3c1.1-0.2,2.2-0.5,3.3-0.8
	c0.3-0.1,0.5-0.1,0.8,0c4.5,1,9.6,2.1,14.8,3.2c5.3,1.1,10.4,1.9,15.6,2.7c1.2,0.2,2.3,0.3,3.5,0.5
	C525.5,576,528.5,576.4,531.6,576.8z M71.9,578.1c3.1-0.2,6.5-0.5,9.6-0.8c5.7-0.6,11.2-1.3,16.5-2.1c7.4-1.1,13.8-2.2,19.7-3.4
	c3.5-0.7,7.2-1.5,11.3-2.5c0.3-0.1,0.5-0.1,0.9,0c7.3,1.7,13.9,3.1,20.2,4.2c5.5,1,11.3,1.9,17.2,2.6c1.6,0.2,3.1,0.4,4.8,0.6
	c3.3,0.4,6.9,0.8,10.3,1.1c2.6,0.2,5.5,0.5,8.3,0.7c-11.8,6.6-22.9,14.2-33,22.6c-12.2,10.3-23.1,21.8-32.2,34.5
	c-12.2-16.6-27.3-31.2-44.9-43.3c-6.8-4.7-14-9-21.7-13.2c3-0.1,6.1-0.3,9.3-0.6C69.5,578.3,70.7,578.2,71.9,578.1z M27.7,454.8
	c0.5-8.2,2-15.5,4.6-22.2c3.2-8.5,8.7-16.2,16.2-22.6c6.9-6,15.1-10.7,24.9-14.5c6.4-2.4,13.3-4.2,21-5.6c4.8-0.8,10-1.6,15.3-2.1
	c7.5-0.7,14.3-1.1,20.6-1.1c3.4,0,6.9,0.1,10.2,0.3c5.7,0.4,10.5,0.9,15,1.6c13.3,2.1,24.9,5.8,35.4,11.1c5.8,2.9,10.9,6.6,15.3,11
	c-4.6,5.6-8.3,11.7-10.9,18.3c-2.6,6.6-4.2,13.6-5,21.1c-0.7,6.8-0.4,13.7,0.8,21c1.3,8,3.7,15.9,7.4,23.7
	c2.6,5.6,5.4,10.5,8.5,14.9c-0.1,0.2-0.3,0.3-0.4,0.5c-5.7,7.1-12.4,13.6-20.6,19.5c-8.9,6.6-19.1,12.2-31.1,17.5
	c-9.7,4.2-20.1,7.9-31.9,11.2c-0.7,0.2-1.1,0.2-1.5,0.1c-15.1-4.5-28.1-9.8-39.9-16.4C70.1,535.6,60,527.8,51.5,519
	c-11.2-11.6-18.6-25.7-22.1-41.8C27.9,470.1,27.3,462.4,27.7,454.8z M489,386.8c2.6,0,5.2,0.1,7.7,0.2c9.1,0.4,17.3,1.4,25,3.1
	c10.7,2.3,19.8,5.5,27.9,9.7c17.2,8.9,28,23.2,32.3,42.5c1.6,7.5,2,15.4,1.2,23.5c-1.9,18.8-9,35.2-21.2,48.8
	c-6.9,7.6-15,14.4-24.8,20.5c-10.5,6.7-22.4,12.3-36.4,17.5c-5.5,2-11.3,3.8-18.4,6c-1,0.3-1.7,0.3-2.4,0.1
	c-14.7-4.3-27.2-9.5-38.4-15.8c-11.9-6.7-22.5-14.7-31.2-23.7c-1.9-2-3.6-3.8-5.2-5.8c0.4-0.5,0.7-0.9,1.1-1.4
	c3.5-5.2,6.6-10.7,9-16.5c5-11.7,7.5-24,7.5-36.3c0-2.3-0.2-4.7-0.3-6.9c-0.6-7.1-2.1-14-4.7-20.3c-2.9-7.7-7.1-14.5-12.3-20.3
	c1-1,2.1-1.8,3.2-2.8l0.5-0.4c6.4-5.2,13.8-9.3,22.6-12.6c6.6-2.5,13.6-4.3,21.5-5.7c4.1-0.7,9.6-1.6,15.3-2.1
	C475.7,387.1,482.4,386.8,489,386.8z M404.2,468.7c-0.9,6.9-2.5,13.4-4.9,19.4c-1.3,3.6-2.7,6.8-4.2,9.6c-4.1-8.5-6.9-17.5-8.1-26.8
	c-0.7-5.3-0.9-9.7-0.7-13.9c0.5-10,2.2-18.6,5.4-26.1c1.1-2.7,2.6-5.5,4.2-8.1c4.9,8.3,7.8,17.9,8.7,28.3
	C405.2,457.2,405,463,404.2,468.7z M224.5,463.6c-0.9,11.6-3.8,22.5-8.7,32.4c-4.5-9.6-7-19.6-7.8-30c-0.6-8.2,0-16.2,1.7-23.8
	c1.5-6.9,3.7-12.7,6.8-17.7c3,5.6,5.3,11.5,6.7,18.3C224.7,449.3,225.1,456.4,224.5,463.6z M251.5,578.2c1.6-0.1,3.3-0.2,5-0.4
	c3.7-0.4,7.4-0.8,11.1-1.2c1.9-0.2,3.8-0.5,5.7-0.7l2.3-0.3c6.7-0.9,13-1.9,19-3.2c5-1,9.8-2.1,14.9-3.2c0.2,0,0.3-0.1,0.4-0.1
	s0.2,0,0.3,0c6.8,1.6,12.3,2.8,17.5,3.7s10.7,1.9,16.3,2.6l4.2,0.5c3,0.4,6.1,0.8,9.1,1.1c1.8,0.2,3.6,0.4,5.4,0.5l3,0.2
	c1.8,0.2,3.6,0.3,5.6,0.4c-11.7,6.5-22.7,14-32.6,22.3c-12.3,10.3-23.4,22.1-32.7,34.9c-0.8-1.1-1.7-2.3-2.5-3.4
	c-10.2-13.3-22.3-25.1-35.7-35.1c-9-6.8-18.5-12.7-28.4-18c2.7-0.1,5.7-0.3,8.8-0.6C249.3,578.5,250.4,578.3,251.5,578.2z
	 M369.4,445.6c-2,13.4-0.6,27,4.1,40.8c3,8.6,7.3,16.9,12.7,24.7c-7.2,8.8-16,16.6-27,23.6c-9.1,5.9-19.3,11-31.1,15.7
	c-7.7,3-15.9,5.9-25,8.4c-0.7,0.2-1.1,0.2-1.5,0.1c-13.7-4-25.5-8.7-36.2-14.4c-13.7-7.3-25-15.8-34.6-26c-1.8-1.9-3.4-3.9-5.2-6.1
	c7.9-11.5,13-24.3,15.4-37.9c1.4-8.3,1.7-16.5,0.8-24.2c-1.7-14.5-7.1-27.1-15.9-37.6c0.8-0.8,1.7-1.6,2.5-2.3
	c6.6-5.8,14.4-10.4,23.8-14.2c7-2.7,14.6-4.8,22.6-6.1c1-0.2,2-0.3,3-0.5c2.6-0.4,5.4-0.9,8-1.2c3.1-0.4,6.3-0.6,9.4-0.9l2.4-0.2
	c5.3-0.4,10.7-0.6,17.4-0.4c5.3,0.1,10.6,0.6,16.2,1.2c7.9,1,15.5,2.5,22.6,4.8c7.6,2.3,14.1,5.1,19.8,8.3c4.5,2.5,8.4,5.5,11.8,8.7
	C377,419.9,371.5,431.9,369.4,445.6z M215.5,570c-1,0-1.9,0.1-2.6,0.4c-1.8-0.4-3.5-0.4-5.2-0.4h-1c-6.7-0.1-13.5-0.4-19.9-0.7
	c-5.5-0.3-10.4-0.7-15.4-1.2c-5.6-0.6-11.2-1.3-16.7-2.1c-2.8-0.4-5.7-0.9-8.4-1.4c3.3-1,6.5-2.1,9.5-3.2
	c14.2-5.2,26.4-11.1,37.4-18.3c9.1-6,17.3-12.7,24.3-20.1c7.7,8.1,16.8,15.3,27.8,21.7c11.8,7,25.5,12.9,41.7,18.2h0.1
	c-4.5,0.9-8.8,1.8-13,2.5c-5,0.8-9.9,1.5-14.8,2.1c-7.6,0.9-14.5,1.5-21.2,1.9c-6.1,0.3-14.1,0.8-22.1,0.8
	C215.7,570,215.6,570,215.5,570z M393.8,570c-0.5,0-1.2,0-2,0.2c-0.1,0-0.1,0-0.2,0c-0.7-0.1-1.4-0.2-2.2-0.2
	c-2.1-0.1-4.2-0.1-6.5-0.2c-4.1-0.1-8.4-0.2-12.6-0.4c-6.1-0.3-11.1-0.7-15.9-1.1c-4.5-0.4-9.3-0.9-14.2-1.6
	c-4.8-0.6-9.4-1.4-14-2.2c6.2-1.9,11.8-3.9,17.2-6.2c15.2-6.2,28-13.5,39.2-22.2c5.3-4.1,9.9-8.2,14-12.5
	c7.6,7.9,16.6,14.9,27.6,21.2c11.2,6.6,23.7,12,38.3,16.9c0.9,0.3,1.9,0.6,2.8,0.9c-3.7,0.8-7.6,1.6-11.5,2.2l-2.6,0.4
	c-3.8,0.6-7.8,1.3-11.7,1.7c-5.1,0.6-10.4,1.2-15.8,1.6c-9.5,0.8-19.3,1.2-29.7,1.3L393.8,570z"/>
<path fill="#FF8900" d="M599.7,444c-3.3-17.1-12-31.1-25.6-41.6c-6.7-5.2-14.4-9.4-23.7-12.9c-10.6-4.1-22.5-7.2-37.3-9.5
	c-6.4-1-12.2-1.7-17.9-1.9c-0.5-0.3-1-0.5-1.6-0.5H468c-0.6,0-1.1,0.2-1.6,0.5c-5.5,0.2-10.6,0.9-15.1,1.5
	c-8.8,1.2-19.2,2.9-29.3,6.6c-10.8,3.8-19.9,8.9-27.7,15.5c-3.9-2.8-8.3-5.5-12.8-7.8c-6.3-3.1-13.2-5.8-20.9-8.1
	c-8.5-2.4-17.6-4.5-27.1-5.9c-5.8-0.8-13.4-1.8-21.2-1.9h-0.5c-1,0-2,0-2.7-0.2c-0.3-0.1-0.5-0.1-0.8-0.1H296c-0.3,0-0.5,0-0.8,0.1
	c-1,0.3-2,0.3-3.1,0.3h-1.3c-3.8,0-7.6,0.4-11.1,0.7c-4.5,0.5-8.8,1.1-12.9,1.8c-6.6,1-12.3,2.3-17.7,3.8c-10.8,3-20,7.5-28.1,13.3
	c-1.9,1.4-3.8,2.8-5.7,4.3c-7.2-5.5-15.7-9.9-25.7-13.6c-7.4-2.6-15.5-4.9-24.8-6.8c-6.2-1.2-11.3-2.1-16.1-2.6l-1.9-0.2
	c-3.2-0.4-6.5-0.8-9.8-0.9c-0.5-0.3-1.1-0.5-1.7-0.5h-18.4c-0.1,0-0.2,0-0.3,0c-2.4,0.2-4.9,0.3-7.3,0.4c-3.5,0.2-7.3,0.4-10.9,0.8
	c-5.4,0.6-12.4,1.6-19.6,3c-12.5,2.5-23.4,6.7-33.2,12.6c-9.8,6.1-17.8,13.7-23.7,22.7c-5.6,8.5-9.2,18.1-10.7,28.6
	c-0.1,0.9-0.2,1.9-0.3,2.8c-0.1,0.5-0.1,1.1-0.2,1.6c0,0.2,0,0.3-0.1,0.5v0.1c-0.5,0.6-0.8,1.3-0.8,2v9.9c0,0.8,0.3,1.5,0.8,2.1
	c0,0.1,0,0.2,0,0.3c0.3,4.2,1.1,8.6,2.3,13.3c3.7,14.7,10.9,28.3,21.3,40.6c6.7,7.8,14.8,14.8,24.7,21.3c10.6,7,22.7,13,36.9,18.3
	c3.7,1.4,7.4,2.6,11.1,3.8c-8,1.7-16.1,3-24.3,4.1c-7.2,0.9-14.2,1.6-20.7,2.1c-8.9,0.6-17.6,1-25.8,1c-0.9,0-1.6,0-2.2,0.1
	c-1.4,0.2-2.6,1.2-3,2.6c-0.4,1.5,0.2,3.2,1.5,4c0.7,0.4,1.6,0.9,2.6,1.4c14.5,6.6,28,14.8,40.4,24.4c16.8,13.2,30.9,28.6,41.9,46
	l0.2,0.3c0,0.1-0.1,0.2-0.2,0.3c-6.8,11.3-12.1,23.3-16,35.4c-4,12.5-6.5,25.5-7.5,38.4c-0.6,9-0.6,18.1,0.2,27.8
	c0,0.5,0.1,1,0.2,1.5c0,0.2,0.1,0.5,0.1,0.7c0.2,1.5,1.1,2.8,2.5,3.6c0.7,0.4,1.4,0.7,2.2,0.9c1.6,0.5,3.1,0.7,4.7,0.9
	c0.4,0.1,0.8,0.1,1.2,0.2c0.8,0.1,1.6,0.1,2.5,0.1c0.5,0,2-0.1,3.1-1.4c1.1-1.2,1-2.8,0.9-3.4c-0.1-0.8-0.1-1.6-0.2-2.4
	c-0.1-1.5-0.3-2.9-0.3-4.3c-0.3-8.6-0.3-15.6,0.2-22.1c0.7-9.5,2.3-19,4.8-28.3c2.7-10.3,6.5-20.4,11.2-30
	c3.5,7.6,6.6,15.4,8.9,23.5c2.4,8.3,4.2,16.8,5.3,25.2c0.4,3.5,0.8,7.3,1,11.5c0.3,5.8,0.3,11.3,0,16.6c-0.2,3.2-0.4,5.8-0.6,8.2
	c-0.2,2.3,0.8,4.1,2.8,5.2c1.2,0.6,2.6,1,4,1.3c0.2,0,0.4,0.1,0.5,0.1c0,0,0,0,0.1,0c0.6,0.5,1.3,0.8,2.1,0.8h4.2
	c1.2,0,2.3-0.7,2.7-1.8c0.4-1,0.7-2,0.8-3.1c0.1-1.3,0.2-2.6,0.3-3.9c0.2-2.4,0.4-5,0.5-7.5c0.4-12.2-0.5-24.6-2.8-36.9
	c-3.1-16.4-8.6-32.2-16.4-47c-1.5-2.9-3.1-5.8-4.5-8.1c0.4-0.6,0.8-1.2,1.2-1.8s0.8-1.3,1.2-1.9c14-20.8,32.2-38.6,54.2-52.9
	c8-5.2,16.5-9.9,26-14.3c0.2,0.1,0.4,0.1,0.5,0.2c19.7,9.5,37.5,22,52.9,37.1c7.1,7.1,13.6,14.6,19.1,22.5c1.1,1.6,2.2,3.2,3.3,4.9
	c0.9,1.4,1.9,2.9,2.9,4.3c-1,1.5-1.8,3-2.7,4.6l-0.1,0.2c-12.4,22.5-19.5,46.5-21,71.6c-0.5,8.4-0.4,17.1,0.4,26
	c0,0.3,0.1,0.5,0.1,0.7c0,0.1,0,0.2,0,0.3c0.1,2.3,1.5,4.1,3.8,5c3.1,1,6.1,1.5,9.2,1.4c0.6,0,2.1-0.1,3.2-1.3c1.1-1.3,1-2.9,1-3.6
	c-0.1-0.7-0.1-1.4-0.2-2.1c-0.1-1.4-0.3-2.7-0.3-4.1c-0.2-6.7-0.4-14.5,0.2-22.1c0.5-6.8,1.5-13.6,2.8-20.2
	c2.7-13.2,7.1-26.1,13.2-38.4c5.1,10.8,8.9,22,11.4,33.1c1.5,6.7,2.6,13.5,3.2,20.1c0.2,1.7,0.3,3.4,0.4,5.2
	c0.1,0.9,0.1,1.9,0.2,2.8c0.3,4.8,0.3,9.7,0,14.7c-0.1,0.9-0.1,1.9-0.2,2.8c-0.1,2-0.2,3.9-0.4,5.9c-0.4,3.2,0.9,4.6,3.2,5.7
	c1.3,0.6,2.5,0.9,3.5,1.1c0.2,0,0.3,0.1,0.5,0.1h0.1c0.6,0.5,1.3,0.8,2.1,0.8h4.2c1.3,0,2.4-0.8,2.8-2l0.1-0.1
	c0.2-0.6,0.5-1.4,0.6-2.4c0.5-5.5,0.8-9.7,0.8-13.7c0.1-4.2,0-8.6-0.3-12.7c-0.5-8.6-1.6-17.3-3.4-25.7
	c-3.6-17.4-10.2-34.3-19.4-50.3c-0.3-0.5-0.6-1-0.8-1.3c0-0.1,0.1-0.1,0.1-0.2c0.2-0.3,0.5-0.7,0.7-1.1
	c11.1-17.2,25.3-32.7,42.3-45.7c11.3-8.8,23.9-16.5,37.2-22.8c0.5-0.2,1-0.5,1.5-0.8c0.1,0,0.2,0.1,0.3,0.1c1,0.5,2,1,2.9,1.5
	c1.8,0.9,3.7,1.9,5.6,2.9c23.2,12.6,42.9,29.2,58.6,49.2c3.5,4.5,7,9.3,10.5,15c-1.5,2.4-2.8,4.9-4.1,7.4
	c-12,22.6-18.7,46.9-19.8,72.4c-0.3,6.3-0.1,13,0.5,20.6c0,0.6,0.1,1.2,0.2,1.8c0.1,0.5,0.1,1,0.2,1.5c0.1,1.8,1.1,3.2,2.7,4.1
	c0.8,0.4,1.4,0.7,2.1,0.8c2.1,0.6,4.3,1,6.7,1.1c0.7,0,1.3,0,2.2-0.1c2.2-0.3,3.6-2,3.5-4.2c0-0.3,0-0.6-0.1-0.8v-0.3
	c-0.1-1-0.2-2-0.2-3c-0.2-2.1-0.4-4.2-0.4-6.3c-0.4-12.1,0.4-24.2,2.6-35.8c2.6-14.3,7.3-28.1,13.8-41.5c0.3,0.5,0.5,1.1,0.7,1.6
	c8.5,18.5,13.4,38.2,14.5,58.4c0.5,8.6,0.3,16.9-0.6,24.8c-0.3,2.5,0.6,4.2,2.9,5.4c1.2,0.6,2.5,1,4,1.3c0.1,0,0.2,0,0.3,0.1
	c0.6,0.5,1.3,0.9,2.1,0.9h4.8c1.6,0,2.9-1.2,3-2.8c0.1-1,0.2-2.1,0.3-3.1c0.2-2.3,0.4-4.7,0.5-7.1c0.6-13.8-0.3-27.1-2.7-39.8
	c-3.5-18.7-10.2-36.7-19.8-53.7c-0.2-0.4-0.4-0.7-0.6-1s-0.3-0.5-0.5-0.7c0.4-0.7,0.8-1.3,1.2-2c11.8-18.2,27-34.2,45-47.5
	c11.2-8.3,23.4-15.5,36.2-21.3c0.1-0.1,0.2-0.1,0.4-0.1c0.8-0.3,2.1-0.8,3-2.1c0.7-1,0.7-2.3,0-3.3c-1-1.5-2.4-1.9-3.1-2.1l-0.2-0.1
	c-1-0.3-1.9-0.6-2.9-0.9c-0.8-0.2-1.5-0.4-2.3-0.7c-1.4-0.4-2.7-0.5-3.7-0.5c-10.1-0.1-20.2-0.5-30-1.2c-6.7-0.5-13.4-1.2-19.8-2.1
	c-4.3-0.6-8.8-1.3-13.4-2.1c7.7-2.4,14.9-5.1,21.7-8.1c15.1-6.6,27.8-14.4,38.9-23.8c7.1-6,12.4-11.5,16.9-17.5
	c8.8-11.9,14.7-25.3,17.3-40C601.7,464.4,601.6,453.9,599.7,444z M531.6,576.8c3,0.4,6,0.6,8.9,0.9l2.6,0.2c1.9,0.2,4.1,0.4,6.6,0.5
	c-0.4,0.2-0.7,0.4-1.1,0.6c-3.5,2-6.7,3.8-9.7,5.8c-3.1,2-6.3,4.1-9.3,6.3c-3.1,2.2-6.2,4.5-9,6.8c-2.9,2.3-5.9,4.8-8.6,7.3
	c-2.7,2.5-5.6,5.1-8.2,7.8s-5.3,5.5-7.7,8.2c-2.3,2.6-4.8,5.5-7.2,8.7c-1.5,1.9-2.9,3.8-4.3,5.8c-13-17.7-29.3-33.1-48.6-45.8
	c-5.7-3.7-11.6-7.3-18.2-10.7c1.7-0.1,3.4-0.2,5.2-0.3c4.8-0.3,9.8-0.6,15.1-1.2c1.3-0.2,2.6-0.3,3.9-0.4c1.7-0.2,3.3-0.4,5.1-0.6
	l1.5-0.2c4.3-0.6,8.8-1.2,13.3-1.9c7.6-1.2,14.7-2.6,21.5-4.1c0.4-0.1,0.9-0.2,1.3-0.3c1.1-0.2,2.2-0.5,3.3-0.8
	c0.3-0.1,0.5-0.1,0.8,0c4.5,1,9.6,2.1,14.8,3.2c5.3,1.1,10.4,1.9,15.6,2.7c1.2,0.2,2.3,0.3,3.5,0.5
	C525.5,576,528.5,576.4,531.6,576.8z M71.9,578.1c3.1-0.2,6.5-0.5,9.6-0.8c5.7-0.6,11.2-1.3,16.5-2.1c7.4-1.1,13.8-2.2,19.7-3.4
	c3.5-0.7,7.2-1.5,11.3-2.5c0.3-0.1,0.5-0.1,0.9,0c7.3,1.7,13.9,3.1,20.2,4.2c5.5,1,11.3,1.9,17.2,2.6c1.6,0.2,3.1,0.4,4.8,0.6
	c3.3,0.4,6.9,0.8,10.3,1.1c2.6,0.2,5.5,0.5,8.3,0.7c-11.8,6.6-22.9,14.2-33,22.6c-12.2,10.3-23.1,21.8-32.2,34.5
	c-12.2-16.6-27.3-31.2-44.9-43.3c-6.8-4.7-14-9-21.7-13.2c3-0.1,6.1-0.3,9.3-0.6C69.5,578.3,70.7,578.2,71.9,578.1z M27.7,454.8
	c0.5-8.2,2-15.5,4.6-22.2c3.2-8.5,8.7-16.2,16.2-22.6c6.9-6,15.1-10.7,24.9-14.5c6.4-2.4,13.3-4.2,21-5.6c4.8-0.8,10-1.6,15.3-2.1
	c7.5-0.7,14.3-1.1,20.6-1.1c3.4,0,6.9,0.1,10.2,0.3c5.7,0.4,10.5,0.9,15,1.6c13.3,2.1,24.9,5.8,35.4,11.1c5.8,2.9,10.9,6.6,15.3,11
	c-4.6,5.6-8.3,11.7-10.9,18.3c-2.6,6.6-4.2,13.6-5,21.1c-0.7,6.8-0.4,13.7,0.8,21c1.3,8,3.7,15.9,7.4,23.7
	c2.6,5.6,5.4,10.5,8.5,14.9c-0.1,0.2-0.3,0.3-0.4,0.5c-5.7,7.1-12.4,13.6-20.6,19.5c-8.9,6.6-19.1,12.2-31.1,17.5
	c-9.7,4.2-20.1,7.9-31.9,11.2c-0.7,0.2-1.1,0.2-1.5,0.1c-15.1-4.5-28.1-9.8-39.9-16.4C70.1,535.6,60,527.8,51.5,519
	c-11.2-11.6-18.6-25.7-22.1-41.8C27.9,470.1,27.3,462.4,27.7,454.8z M489,386.8c2.6,0,5.2,0.1,7.7,0.2c9.1,0.4,17.3,1.4,25,3.1
	c10.7,2.3,19.8,5.5,27.9,9.7c17.2,8.9,28,23.2,32.3,42.5c1.6,7.5,2,15.4,1.2,23.5c-1.9,18.8-9,35.2-21.2,48.8
	c-6.9,7.6-15,14.4-24.8,20.5c-10.5,6.7-22.4,12.3-36.4,17.5c-5.5,2-11.3,3.8-18.4,6c-1,0.3-1.7,0.3-2.4,0.1
	c-14.7-4.3-27.2-9.5-38.4-15.8c-11.9-6.7-22.5-14.7-31.2-23.7c-1.9-2-3.6-3.8-5.2-5.8c0.4-0.5,0.7-0.9,1.1-1.4
	c3.5-5.2,6.6-10.7,9-16.5c5-11.7,7.5-24,7.5-36.3c0-2.3-0.2-4.7-0.3-6.9c-0.6-7.1-2.1-14-4.7-20.3c-2.9-7.7-7.1-14.5-12.3-20.3
	c1-1,2.1-1.8,3.2-2.8l0.5-0.4c6.4-5.2,13.8-9.3,22.6-12.6c6.6-2.5,13.6-4.3,21.5-5.7c4.1-0.7,9.6-1.6,15.3-2.1
	C475.7,387.1,482.4,386.8,489,386.8z M404.2,468.7c-0.9,6.9-2.5,13.4-4.9,19.4c-1.3,3.6-2.7,6.8-4.2,9.6c-4.1-8.5-6.9-17.5-8.1-26.8
	c-0.7-5.3-0.9-9.7-0.7-13.9c0.5-10,2.2-18.6,5.4-26.1c1.1-2.7,2.6-5.5,4.2-8.1c4.9,8.3,7.8,17.9,8.7,28.3
	C405.2,457.2,405,463,404.2,468.7z M224.5,463.6c-0.9,11.6-3.8,22.5-8.7,32.4c-4.5-9.6-7-19.6-7.8-30c-0.6-8.2,0-16.2,1.7-23.8
	c1.5-6.9,3.7-12.7,6.8-17.7c3,5.6,5.3,11.5,6.7,18.3C224.7,449.3,225.1,456.4,224.5,463.6z M251.5,578.2c1.6-0.1,3.3-0.2,5-0.4
	c3.7-0.4,7.4-0.8,11.1-1.2c1.9-0.2,3.8-0.5,5.7-0.7l2.3-0.3c6.7-0.9,13-1.9,19-3.2c5-1,9.8-2.1,14.9-3.2c0.2,0,0.3-0.1,0.4-0.1
	s0.2,0,0.3,0c6.8,1.6,12.3,2.8,17.5,3.7s10.7,1.9,16.3,2.6l4.2,0.5c3,0.4,6.1,0.8,9.1,1.1c1.8,0.2,3.6,0.4,5.4,0.5l3,0.2
	c1.8,0.2,3.6,0.3,5.6,0.4c-11.7,6.5-22.7,14-32.6,22.3c-12.3,10.3-23.4,22.1-32.7,34.9c-0.8-1.1-1.7-2.3-2.5-3.4
	c-10.2-13.3-22.3-25.1-35.7-35.1c-9-6.8-18.5-12.7-28.4-18c2.7-0.1,5.7-0.3,8.8-0.6C249.3,578.5,250.4,578.3,251.5,578.2z
	 M369.4,445.6c-2,13.4-0.6,27,4.1,40.8c3,8.6,7.3,16.9,12.7,24.7c-7.2,8.8-16,16.6-27,23.6c-9.1,5.9-19.3,11-31.1,15.7
	c-7.7,3-15.9,5.9-25,8.4c-0.7,0.2-1.1,0.2-1.5,0.1c-13.7-4-25.5-8.7-36.2-14.4c-13.7-7.3-25-15.8-34.6-26c-1.8-1.9-3.4-3.9-5.2-6.1
	c7.9-11.5,13-24.3,15.4-37.9c1.4-8.3,1.7-16.5,0.8-24.2c-1.7-14.5-7.1-27.1-15.9-37.6c0.8-0.8,1.7-1.6,2.5-2.3
	c6.6-5.8,14.4-10.4,23.8-14.2c7-2.7,14.6-4.8,22.6-6.1c1-0.2,2-0.3,3-0.5c2.6-0.4,5.4-0.9,8-1.2c3.1-0.4,6.3-0.6,9.4-0.9l2.4-0.2
	c5.3-0.4,10.7-0.6,17.4-0.4c5.3,0.1,10.6,0.6,16.2,1.2c7.9,1,15.5,2.5,22.6,4.8c7.6,2.3,14.1,5.1,19.8,8.3c4.5,2.5,8.4,5.5,11.8,8.7
	C377,419.9,371.5,431.9,369.4,445.6z M215.5,570c-1,0-1.9,0.1-2.6,0.4c-1.8-0.4-3.5-0.4-5.2-0.4h-1c-6.7-0.1-13.5-0.4-19.9-0.7
	c-5.5-0.3-10.4-0.7-15.4-1.2c-5.6-0.6-11.2-1.3-16.7-2.1c-2.8-0.4-5.7-0.9-8.4-1.4c3.3-1,6.5-2.1,9.5-3.2
	c14.2-5.2,26.4-11.1,37.4-18.3c9.1-6,17.3-12.7,24.3-20.1c7.7,8.1,16.8,15.3,27.8,21.7c11.8,7,25.5,12.9,41.7,18.2h0.1
	c-4.5,0.9-8.8,1.8-13,2.5c-5,0.8-9.9,1.5-14.8,2.1c-7.6,0.9-14.5,1.5-21.2,1.9c-6.1,0.3-14.1,0.8-22.1,0.8
	C215.7,570,215.6,570,215.5,570z M393.8,570c-0.5,0-1.2,0-2,0.2c-0.1,0-0.1,0-0.2,0c-0.7-0.1-1.4-0.2-2.2-0.2
	c-2.1-0.1-4.2-0.1-6.5-0.2c-4.1-0.1-8.4-0.2-12.6-0.4c-6.1-0.3-11.1-0.7-15.9-1.1c-4.5-0.4-9.3-0.9-14.2-1.6
	c-4.8-0.6-9.4-1.4-14-2.2c6.2-1.9,11.8-3.9,17.2-6.2c15.2-6.2,28-13.5,39.2-22.2c5.3-4.1,9.9-8.2,14-12.5
	c7.6,7.9,16.6,14.9,27.6,21.2c11.2,6.6,23.7,12,38.3,16.9c0.9,0.3,1.9,0.6,2.8,0.9c-3.7,0.8-7.6,1.6-11.5,2.2l-2.6,0.4
	c-3.8,0.6-7.8,1.3-11.7,1.7c-5.1,0.6-10.4,1.2-15.8,1.6c-9.5,0.8-19.3,1.2-29.7,1.3L393.8,570z"/>
</svg>
